<svg width="290" height="244" viewBox="0 0 290 244" xmlns="http://www.w3.org/2000/svg" xmlns:xlink="http://www.w3.org/1999/xlink"><title>art</title><defs><path id="a" d="M0 0h290v244H0z"/><mask id="b" x="0" y="0" width="290" height="244" fill="#fff"><use xlink:href="#a"/></mask></defs><g fill="none" fill-rule="evenodd"><use stroke="#B48888" mask="url(#b)" stroke-width="20" fill="#FFF" xlink:href="#a"/><path fill="#EEFF51" d="M42.62 37.474h211.246v174.048H42.62z"/><path d="M122.503 121.684c0 1.946-.06 3.892-.164 5.81 10.166 2.63 25.905-19.856 65.237-36.38 9.373-3.938 48.75-5.922 53.043-5.309 4.295.614.914 4.246 0 5.31-3.43 3.992-42.065-1.583-65.198 21.19-23.133 22.773-49.614 53.415-73.8 53.415-9.563 0-25.03-4.37-30.451-12.32 0 0-1.946-4.712-1.953-5.948-1.05-5.907-2.417-15.55-2.417-25.768 0-16.601 4.535-33.203 4.535-33.203.643-3.356 10.886-6.037 23.433-6.037 12.548 0 22.792 2.681 23.405 6.052.029-.015 4.33 16.587 4.33 33.188z" fill="#432C22"/></g></svg>