<svg width="190" height="67" viewBox="0 0 190 67" xmlns="http://www.w3.org/2000/svg"><path d="M132.483 37.792c-.533.332-.816.493-.85.481-.031-.015-.39.243-1.078.774-.14.14-.47.305-.985.492-.343.14-.61.211-.797.211-.515 0-.894-.313-1.136-.938-.242-.624-.364-1.421-.364-2.39 0-.578.036-1.211.106-1.899.07-.687.16-1.382.27-2.086.109-.703.23-1.5.363-2.39.133-.89.254-1.617.363-2.18.11-.562.2-1.047.27-1.453.07-.406.105-.695.105-.867 0-1.156-.23-2.063-.691-2.719-.461-.656-1.082-.984-1.864-.984-.78 0-1.492.156-2.132.468-.641.313-1.211.891-1.711 1.735a62.608 62.608 0 0 0-1.22 2.215c-.265.508-.55 1.039-.855 1.593-.304.555-.59 1.192-.855 1.91-.266.72-.5 1.27-.703 1.653-.203.383-.352.66-.446.832h-.468c0-.11.023-.324.07-.645.047-.32.105-.804.176-1.453.07-.648.144-1.226.222-1.734.079-.508.153-1 .223-1.477.07-.476.129-.914.176-1.312.047-.399.07-.715.07-.95 0-.859-.164-1.546-.492-2.062-.328-.515-.914-.773-1.758-.773s-1.512.242-2.004.726c-.492.485-.824 1.086-.996 1.805a63.98 63.98 0 0 0-.68 3.328 70.277 70.277 0 0 0-.632 4.371c-.186 1.599-.34 3.068-.465 4.407l-.332.292a48.141 48.141 0 0 1-2.063 1.723 16.718 16.718 0 0 1-2.086 1.418c-.687.39-1.312.586-1.875.586-.484 0-.804-.207-.96-.621-.157-.414-.235-.973-.235-1.676 0-.719.078-1.527.234-2.426.157-.898.352-1.82.586-2.765.235-.946.532-1.992.891-3.14.36-1.15.656-2.134.89-2.954.235-.82.43-1.555.587-2.203.156-.649.234-1.145.234-1.488 0-.407-.117-.73-.352-.973-.234-.242-.68-.363-1.336-.363-.359 0-.761.043-1.207.129a6.16 6.16 0 0 0-1.289.398c-.414.18-.785.41-1.113.691-.36.313-.578.664-.656 1.055-.125.594-.453 1.875-.985 3.844-.656 2.36-1.093 3.883-1.312 4.57-.102.256-.309 1.253-.62 2.991a43.168 43.168 0 0 1-2.005 1.556c-.375.266-.762.527-1.16.785-.399.258-.793.488-1.184.692-.39.203-.762.363-1.113.48a3.094 3.094 0 0 1-.973.176c-.312 0-.574-.094-.785-.281a1.94 1.94 0 0 1-.504-.762 4.734 4.734 0 0 1-.27-1.09 9.667 9.667 0 0 1-.011-2.402 18.78 18.78 0 0 1 .398-2.145c.079-.312.157-.578.235-.797.36-1 1.195-2.898 2.508-5.695a95.223 95.223 0 0 0 2.39-5.531 58.008 58.008 0 0 0 1.922-5.73c.547-1.962.922-4.044 1.125-6.247.047-.578.07-1.14.07-1.687 0-.891-.07-1.754-.21-2.59-.141-.836-.372-1.57-.692-2.203-.32-.633-.738-1.141-1.254-1.524S96.063 0 95.328 0c-1 0-1.969.309-2.906.926-.938.617-1.82 1.472-2.649 2.566-.828 1.094-1.59 2.39-2.285 3.89-.695 1.5-1.3 3.134-1.816 4.9a59.527 59.527 0 0 0-1.242 4.991c-.313 1.563-.493 3.344-.54 5.344-1.187.11-2.304.383-3.35.82-1.048.438-2.067 1.086-3.06 1.946-.992.86-1.789 1.812-2.39 2.86a71.321 71.321 0 0 0-1.64 3.01 14.03 14.03 0 0 0-1.126 2.977 12.478 12.478 0 0 0-.383 2.757c-.309.334-.634.657-.976.97a12.43 12.43 0 0 1-1.102.902c-.367.266-.73.48-1.09.645-.359.164-.703.246-1.03.246-.438 0-.723-.207-.856-.621-.133-.414-.2-.988-.2-1.723 0-.86.133-1.898.399-3.117s.492-2.309.68-3.27c.187-.96.359-1.898.515-2.812.156-.914.235-1.746.235-2.496 0-.484-.043-.867-.13-1.148-.085-.282-.206-.5-.363-.657a1.103 1.103 0 0 0-.539-.304 2.915 2.915 0 0 0-.656-.07c-.172 0-.348.003-.527.011-.18.008-.356.012-.528.012-.203 0-.402-.012-.597-.035a2.155 2.155 0 0 1-.574-.153 1.091 1.091 0 0 1-.47-.375 84.457 84.457 0 0 0-.386-.527c-.133-.18-.3-.34-.504-.48-.203-.141-.484-.212-.844-.212-1.078 0-2.136.23-3.175.692a12.624 12.624 0 0 0-2.965 1.863c-.938.781-1.801 1.695-2.59 2.742a18.85 18.85 0 0 0-1.144 1.714c-.359-.438-.727-.884-1.106-1.339-.977-1.172-2.031-2.144-3.164-2.918a15.85 15.85 0 0 0-3.645-1.851c-1.297-.461-2.687-.692-4.172-.692-1.734 0-3.296.317-4.687.95-1.39.632-2.566 1.5-3.527 2.601-.961 1.102-1.7 2.399-2.215 3.89-.516 1.493-.774 3.27-.774 5.333 0 1.25.145 2.484.434 3.703.289 1.219.746 2.312 1.371 3.281a7.518 7.518 0 0 0 2.402 2.356c.977.601 2.153.902 3.528.902a7.37 7.37 0 0 0 2.695-.492 8.988 8.988 0 0 0 2.332-1.336 10.014 10.014 0 0 0 1.899-1.992 13.198 13.198 0 0 0 1.406-2.461c.383-.875.676-1.782.879-2.719.203-.938.304-1.867.304-2.79 0-1.265-.113-2.401-.34-3.41a12.548 12.548 0 0 0-1.019-2.87l.188-.258c.562.375 1.234.84 2.015 1.394.781.555 1.574 1.23 2.379 2.028.493.488.97.95 1.43 1.385-.53 1.18-.932 2.289-1.207 3.326a14.02 14.02 0 0 0-.492 3.61c0 1.03.164 1.956.492 2.776.328.82.765 1.516 1.312 2.086a5.706 5.706 0 0 0 1.887 1.313c.71.305 1.441.457 2.191.457.703 0 1.407-.117 2.11-.352a11.459 11.459 0 0 0 2.027-.902 12.306 12.306 0 0 0 1.793-1.23 11.38 11.38 0 0 0 1.383-1.336c.5 1.265 1.094 2.23 1.781 2.894.688.664 1.547.996 2.578.996.86 0 1.719-.21 2.578-.633.86-.422 1.664-.937 2.414-1.547.371-.301.724-.61 1.06-.927a7.4 7.4 0 0 0 .358.588 5.726 5.726 0 0 0 1.852 1.746c.742.437 1.621.656 2.637.656.718 0 1.433-.113 2.144-.34.711-.226 1.414-.527 2.11-.902a14.202 14.202 0 0 0 2.015-1.324A22.745 22.745 0 0 0 86 40.828c.375.906.816 1.633 1.324 2.18.508.547 1.016.965 1.524 1.254.507.289.976.48 1.406.574.43.094.754.14.973.14.39 0 .816-.066 1.277-.199.46-.132.933-.304 1.418-.515.484-.211.976-.453 1.476-.727.5-.273.977-.55 1.43-.832.482-.3.968-.62 1.456-.958.03.163.063.323.103.478.148.586.394 1.082.738 1.488.344.406.793.723 1.348.95.554.226 1.238.339 2.05.339.907 0 1.864-.164 2.872-.492a20.659 20.659 0 0 0 2.964-1.23 22.328 22.328 0 0 0 3.21-1.977c.015.208.035.414.06.617.07.586.21 1.11.422 1.57.21.461.511.828.902 1.102.39.273.906.41 1.547.41.516 0 .969-.117 1.36-.352.374-.218.726-.656 1.054-1.312l6.14-12.188h.376a103.51 103.51 0 0 0-.47 3.504 26.645 26.645 0 0 0-.187 3.035c0 2.391.293 4.208.88 5.45.585 1.242 1.308 1.863 2.167 1.863.86 0 1.68-.125 2.461-.375.297-.078 1.055-.39 2.274-.938.449-.196 1.495-.732 3.14-1.608a7.15 7.15 0 0 0 1.817 1.866c1.023.735 2.144 1.102 3.363 1.102 1.656 0 3.36-.836 5.11-2.508l-.47 2.813a39.64 39.64 0 0 0-2.542 2.402c-.711.742-1.614 1.73-2.707 2.965a19.597 19.597 0 0 0-1.559 2.004c-.508.742-.875 1.316-1.102 1.722a213.83 213.83 0 0 1-1.23 2.157c-1.031 1.843-1.484 3.585-1.36 5.226.079.875.294 1.64.645 2.297.352.656.813 1.168 1.383 1.535a6.54 6.54 0 0 0 1.863.82c.672.18 1.406.27 2.203.27.985 0 1.891-.156 2.72-.469.827-.312 1.538-.719 2.132-1.219a8.415 8.415 0 0 0 1.605-1.84c.477-.726.864-1.452 1.16-2.179.297-.727.56-1.523.786-2.39.226-.868.394-1.641.504-2.321.109-.68.195-1.387.257-2.121.032-.313.079-.758.141-1.336.188-2.016.36-3.39.516-4.125.156-.734.445-1.242.867-1.523a219.64 219.64 0 0 1 3.586-2.344c.781-.61 1.734-1.477 2.86-2.602 1.109-1.14 1.882-2.148 2.32-3.023l-1.524-5.203c-2.328 3.781-4.414 6.367-6.258 7.758-.515.39-1 .718-1.453.984.234-2.453.406-4.445.516-5.977.11-1.53.34-2.922.691-4.172.352-1.25.55-2.296.598-3.14.14-2.719.117-4.32-.07-4.805a6.004 6.004 0 0 0-.305-.68c-.266-.421-.75-.632-1.453-.632l-1.032.023c-.203 0-.382-.008-.539-.023a1.674 1.674 0 0 1-.422-.094 5.002 5.002 0 0 0-.304-.106.657.657 0 0 1-.258-.175 2.952 2.952 0 0 0-.2-.188 1.454 1.454 0 0 1-.198-.246 2.329 2.329 0 0 0-.211-.27c-.375-.453-.97-.68-1.782-.68-1.797 0-3.648.852-5.554 2.555a14.48 14.48 0 0 0-3.211 4.137c-.828 1.586-1.649 3.598-2.461 6.035-.415 1.216-.632 2.36-.65 3.433zm-131.14-.456c.204-.14.548-.371 1.032-.691.484-.32 1.055-.7 1.71-1.137a156.44 156.44 0 0 0 2.122-1.442c.758-.523 1.504-1.05 2.238-1.582l.188-1.593c.344-3.282.898-6.293 1.664-9.036.765-2.742 1.668-5.218 2.707-7.43 1.039-2.21 2.172-4.144 3.398-5.8 1.227-1.656 2.477-3.043 3.75-4.16 1.274-1.117 2.532-1.953 3.774-2.508 1.242-.555 2.402-.832 3.48-.832.782 0 1.5.148 2.157.445a4.487 4.487 0 0 1 1.687 1.336c.469.594.836 1.336 1.102 2.227.265.89.398 1.93.398 3.117 0 1.453-.219 2.977-.656 4.57a26.993 26.993 0 0 1-1.864 4.828 38.27 38.27 0 0 1-2.894 4.864 45.584 45.584 0 0 1-3.738 4.675 46.642 46.642 0 0 1-4.43 4.254 40.907 40.907 0 0 1-4.934 3.575c0 .953-.03 2.093-.093 3.422l-.036 1.277c-.007.289-.011.488-.011.597v.258c0 .14.027.27.082.387.054.117.164.211.328.281.164.07.387.125.668.164.281.04.656.059 1.125.059.687 0 1.633-.172 2.836-.516l7.851-2.25c.094-.03.22-.054.375-.07.125-.016.243-.023.352-.023.39 0 .727.074 1.008.222.281.149.515.348.703.598.187.25.328.539.422.867.093.328.14.664.14 1.008 0 .312-.047.617-.14.914a2.883 2.883 0 0 1-.422.832c-.188.258-.422.48-.703.668-.282.187-.61.312-.985.375a59.328 59.328 0 0 1-4.687 1.64c-.688.204-1.41.403-2.168.598a35.85 35.85 0 0 1-4.711.88c-.805.093-1.582.14-2.332.14-1.156 0-2.106-.2-2.848-.598A4.621 4.621 0 0 1 9.23 45.13c-.43-.68-.73-1.66-.902-2.941-.172-1.282-.258-2.422-.258-3.422-1.343.984-2.484 1.765-3.422 2.343-.937.578-1.539.868-1.804.868-.266 0-.52-.09-.762-.27a2.954 2.954 0 0 1-.668-.715 3.796 3.796 0 0 1-.48-.996 3.57 3.57 0 0 1-.07-1.969c.07-.289.23-.52.48-.691zm13.313-8.227a92.273 92.273 0 0 0 2.496-2.707 74.148 74.148 0 0 0 5.04-6.351c.788-1.117 1.5-2.23 2.132-3.34a28.04 28.04 0 0 0 1.594-3.234c.43-1.047.707-2.04.832-2.977.047-.313.078-.613.094-.902.015-.29.023-.559.023-.809 0-.89-.12-1.539-.363-1.945-.242-.407-.574-.61-.996-.61-.5 0-1.086.262-1.758.786-.672.523-1.375 1.27-2.11 2.238-.734.969-1.476 2.14-2.226 3.515a37.08 37.08 0 0 0-2.086 4.594 45.4 45.4 0 0 0-1.676 5.508 42.224 42.224 0 0 0-.996 6.234zM37.883 40.5c.531 0 1.047-.27 1.547-.809s.937-1.218 1.312-2.039c.375-.82.676-1.812.903-2.976.226-1.164.34-2.2.34-3.106 0-.718-.055-1.386-.165-2.004a6.166 6.166 0 0 0-.492-1.605c-.219-.453-.5-.813-.844-1.078-.343-.266-.757-.399-1.242-.399-.64 0-1.25.274-1.828.82-.578.548-1.086 1.247-1.523 2.098a12.71 12.71 0 0 0-1.032 2.825c-.25 1.03-.375 2.195-.375 3.492 0 .656.063 1.273.188 1.851a4.77 4.77 0 0 0 .586 1.512c.265.43.617.773 1.054 1.031.438.258.961.387 1.57.387zm17.554-3.094c0 .39.028.77.083 1.137.054.367.152.695.292.984.141.29.329.524.563.703.234.18.531.27.89.27.579 0 1.102-.25 1.57-.75.47-.5.876-1.102 1.22-1.805.343-.703.62-1.43.832-2.18.21-.75.347-1.374.41-1.874l1.758-7.664c-.64 0-1.266.16-1.875.48-.61.32-1.184.754-1.723 1.3a11.641 11.641 0 0 0-1.488 1.876c-.453.703-.899 1.57-1.336 2.601-.438 1.032-.746 1.938-.926 2.72a9.851 9.851 0 0 0-.27 2.202zM95 10.29c.094-1.094.14-1.96.14-2.601 0-.844-.074-1.43-.222-1.758-.148-.328-.363-.492-.645-.492-.5 0-.953.316-1.359.949s-.766 1.441-1.078 2.426c-.313.984-.586 2.07-.82 3.257a63.685 63.685 0 0 0-.586 3.446 87.082 87.082 0 0 0-.375 3c-.094.89-.157 1.523-.188 1.898a83.703 83.703 0 0 0-.152 2.215c-.04.71-.067 1.36-.082 1.945a58.537 58.537 0 0 0-.024 1.535V27.352c.891-2.032 1.711-4.055 2.461-6.07.313-.86.63-1.762.95-2.708.32-.945.613-1.894.878-2.847.266-.954.497-1.891.692-2.813.195-.922.332-1.797.41-2.625zm7.688 5.156c0-.36.078-.765.234-1.218a3.8 3.8 0 0 1 .762-1.278c.351-.398.82-.734 1.406-1.008.586-.273 1.316-.41 2.191-.41a6.17 6.17 0 0 1 1.547.188c.484.125.906.316 1.266.574.36.258.644.598.855 1.02.211.421.317.921.317 1.5 0 .53-.086 1.046-.258 1.546a3.6 3.6 0 0 1-.82 1.336c-.376.39-.848.707-1.418.95-.57.242-1.254.363-2.051.363-1.375 0-2.39-.324-3.047-.973-.656-.648-.984-1.512-.984-2.59zm35.835 19.57c.141-.921.954-2.68 2.438-5.273 1.375-2.437 2.969-3.656 4.781-3.656l-1.758 7.805a12.185 12.185 0 0 1-.914 4.054c-.703 1.703-1.586 2.555-2.648 2.555-.61 0-1.102-.328-1.477-.984-.578-1.016-.718-2.516-.422-4.5zM143.586 51c-.016.219-.063.723-.14 1.512-.079.789-.16 1.457-.247 2.004-.086.547-.199 1.047-.34 1.5a39.96 39.96 0 0 1-.609 2.027 32.21 32.21 0 0 1-.574 1.559c-.211.53-.41.937-.598 1.218a4.795 4.795 0 0 1-.656.785c-.25.243-.52.41-.809.504-.289.094-.62.141-.996.141-1.047 0-1.312-.742-.797-2.227a27.26 27.26 0 0 1 2.532-5.261c1.062-1.727 2.14-2.98 3.234-3.762zm35.906-10.477c0 .063-.008.22-.023.47-.016.25-.067.538-.153.866a5.644 5.644 0 0 1-.398 1.043c-.18.368-.434.707-.762 1.02-.328.312-.742.57-1.242.773-.5.203-1.11.305-1.828.305a5.187 5.187 0 0 1-1.57-.223 3.214 3.214 0 0 1-1.207-.68 3.067 3.067 0 0 1-.786-1.171c-.187-.477-.28-1.051-.28-1.723 0-.562.081-1.113.245-1.652.164-.54.418-1.02.762-1.442.344-.422.79-.757 1.336-1.007.547-.25 1.195-.375 1.945-.375 1.297 0 2.281.328 2.953.984.672.656 1.008 1.594 1.008 2.812zm9.75 0c0 .063-.008.22-.023.47-.016.25-.067.538-.153.866a5.644 5.644 0 0 1-.398 1.043c-.18.368-.434.707-.762 1.02-.328.312-.742.57-1.242.773-.5.203-1.11.305-1.828.305a5.187 5.187 0 0 1-1.57-.223 3.214 3.214 0 0 1-1.207-.68 3.067 3.067 0 0 1-.786-1.171c-.187-.477-.28-1.051-.28-1.723 0-.562.081-1.113.245-1.652.164-.54.418-1.02.762-1.442.344-.422.79-.757 1.336-1.007.547-.25 1.195-.375 1.945-.375 1.297 0 2.281.328 2.953.984.672.656 1.008 1.594 1.008 2.812zm-19.5 0c0 .063-.008.22-.023.47-.016.25-.067.538-.153.866a5.644 5.644 0 0 1-.398 1.043c-.18.368-.434.707-.762 1.02-.328.312-.742.57-1.242.773-.5.203-1.11.305-1.828.305a5.187 5.187 0 0 1-1.57-.223 3.214 3.214 0 0 1-1.207-.68 3.067 3.067 0 0 1-.786-1.171c-.187-.477-.28-1.051-.28-1.723 0-.562.081-1.113.245-1.652.164-.54.418-1.02.762-1.442.344-.422.79-.757 1.336-1.007.547-.25 1.195-.375 1.945-.375 1.297 0 2.281.328 2.953.984.672.656 1.008 1.594 1.008 2.812zm-90.61-.053c1.547.593 3.926-1.854 5.313-5.468.635-1.653.55-7.295-.29-7.617-.837-.321-1.917.248-2.952 1.41-.878.987-1.723 2.4-2.36 4.057-1.387 3.613-1.257 7.024.29 7.618z" fill="#F44336" fill-rule="evenodd"/></svg>