<svg width="162" height="510" xmlns="http://www.w3.org/2000/svg" xmlns:xlink="http://www.w3.org/1999/xlink"><defs><path d="M121.013 146.82a121.564 121.564 0 0 0-19.2-4.82c-1.337 8.773-9.698 15.53-19.813 15.53-10.09 0-18.435-6.724-19.803-15.465a129.934 129.934 0 0 0-19.21 4.737c.009.242.013.485.013.729 0 9.941-7.387 18-16.5 18-4.756 0-9.041-2.195-12.052-5.707A163.475 163.475 0 0 0 0 169.45v138.613s37.973 50.964 82 58.941c39.832-7.977 80-58.94 80-58.94V169.45a149.492 149.492 0 0 0-12.885-9.135c-2.981 3.224-7.085 5.216-11.615 5.216-9.113 0-16.5-8.059-16.5-18 0-.238.004-.475.013-.71z" id="a"/><mask id="c" x="0" y="0" width="162" height="225.004" fill="#fff"><use xlink:href="#a"/></mask><path d="M75.06 36.383h12.316s.055 54.975 1.814 73.3H73.3c1.76-19.082 1.76-73.3 1.76-73.3z" id="b"/><mask id="d" x="0" y="0" width="15.89" height="73.301" fill="#fff"><use xlink:href="#b"/></mask></defs><g fill="none" fill-rule="evenodd"><use stroke="#979797" mask="url(#c)" stroke-width="18" fill="#643626" xlink:href="#a"/><path d="M68 109.683h27.194v304.392s-9.149 95.536-13.597 95.536S68 414.075 68 414.075V109.683z" fill="#D7D3D4"/><path d="M86.994 26.538v13.475h-11.36V25.64c-2.519-1.377-5.76-.712-6.578-2.342-.908-1.809 2.36-6.387 2.36-8.646V11.24s-5.716-1.716-2.36-8.671c3.355-6.956 5.444 2.413 7.373 2.667 1.93.254 4.436.674 8.67 0 4.233-.673 4.997-8.6 8.101-2.667 3.105 5.932-1.467 8.67-1.467 8.67v3.412c0 1.293 4.64 7.254 3.175 8.646-.776.737-3.175 0-7.227 2.873-.231.13-.46.253-.687.368z" fill="#FFF"/><use stroke="#979797" mask="url(#d)" stroke-width="2" fill="#423D43" xlink:href="#b"/><path d="M33 102.86S70.895 106 80.88 95c13.636 11 47.878 7.86 47.878 7.86l-7.093 24.01s0-.892-3.399-14.546c-2.66-1.924-33.619-7.194-37.387 4.943-4.128-12.137-34.22-6.173-37.156-4.943l-4.812 13.654L33 102.86z" fill="#B3B3B3"/><path d="M77.394 16.052c1.38 0 1.762-.5 1.762-1.052s-1.275-2-2.656-2c-1.38 0-2.5.448-2.5 1s2.013 2.052 3.394 2.052zM85.762 16.052c-1.38 0-1.762-.5-1.762-1.052s1.275-2 2.656-2c1.38 0 2.5.448 2.5 1s-2.013 2.052-3.394 2.052z" fill="#FF5252"/><path d="M81 5.6c1.163-.012 2.51-.11 4.098-.364 4.234-.673 4.998-8.6 8.102-2.667 3.105 5.932-1.467 8.67-1.467 8.67v3.412c0 1.293 4.64 7.254 3.175 8.646-.776.737-3.175 0-7.227 2.873-.231.13-.46.253-.687.368v9.845h.382s.04 39.592 1.126 62.778c15.808 5.94 40.256 3.698 40.256 3.698l-7.093 24.011s0-.892-3.399-14.546c-1.58-1.143-13.15-3.467-23.072-2.62v304.371s-9.149 95.536-13.597 95.536c-.19 0-.39-.176-.597-.512V5.6z" fill="#D7D3D4" style="mix-blend-mode:multiply"/></g></svg>