<svg width="238" height="294" viewBox="0 0 238 294" xmlns="http://www.w3.org/2000/svg" xmlns:xlink="http://www.w3.org/1999/xlink"><title>portrait</title><defs><ellipse id="a" cx="94" cy="122" rx="94" ry="122"/><mask id="b" x="-25" y="-25" width="238" height="294"><path fill="#fff" d="M-25-25h238v294H-25z"/><use xlink:href="#a"/></mask></defs><g fill="none" fill-rule="evenodd"><g transform="translate(25 25)"><use fill="#FFA6A6" xlink:href="#a"/><use stroke="#4A2507" mask="url(#b)" stroke-width="50" xlink:href="#a"/></g><path d="M97.402 162.567l41.768-10.61 16.055 59.62s-21.148-10.172-34.409-8.465c-13.26 1.706-34.058 18.614-34.058 18.614s17.58-18.424 21.322-28.393c3.743-9.968-10.678-30.766-10.678-30.766z" fill="#FFF"/><path d="M108.89 175.425c10.605-4.526 27.838-2.608 40.2-17.994 12.364-15.386 10.234-38.292 8.515-42.636-3.437-8.69 12.281-6.932 11.69-15.328-.144-2.061 1.364-6.67 0-9.01-.869-1.494-6.198-8.221-11.69-12.335-3.116-2.335-6.708-2.463-8.514-3.713-7.487-5.181-14.815 7.697-14.815 7.697-9.495-6.043-14.196-6.139-16.65-6.56-15.84-2.716-58.994 19.928-41.766 29.354-4.22 8.681-6.798 15.304-1.817 24.159 5.388 9.577-2.392 19.242-3.846 23.951-1.455 4.71 5.462.453 9.234 3.032 3.322 2.273.099 6.234.945 8.067.847 1.833 2.377 0 3.715 2.024 0 2.115-6.04 1.887-1.338 3.267s0 13.057 4.995 13.057-1.667 2.701 21.142-7.032z" fill="#FFF"/></g></svg>