<svg width="538" height="766" viewBox="0 0 538 766" xmlns="http://www.w3.org/2000/svg" xmlns:xlink="http://www.w3.org/1999/xlink"><title>shelf</title><defs><path id="a" d="M0 2.242L538 0v182.335H0z"/><mask id="d" x="0" y="0" width="538" height="182.335" fill="#fff"><use xlink:href="#a"/></mask><path id="b" d="M0 2.242L538 0v182.335H0z"/><mask id="e" x="0" y="0" width="538" height="182.335" fill="#fff"><use xlink:href="#b"/></mask><path id="c" d="M0 2.242L538 0v182.335H0z"/><mask id="f" x="0" y="0" width="538" height="182.335" fill="#fff"><use xlink:href="#c"/></mask></defs><g fill="none" fill-rule="evenodd"><g transform="translate(0 253)"><use stroke="#FF4438" mask="url(#d)" stroke-width="38" fill="#C23A26" xlink:href="#a"/><path fill="#DAD8A7" d="M116.016 23.875l27.895-2.932 14.592 138.836-27.895 2.932-7.877-74.946z"/><path fill="#608180" d="M324.488 28.75l39.763-9.914 33.773 135.454-39.763 9.914z"/><path fill="#E91E63" d="M341.39 31.387l10.196-2.542 30.786 123.475-10.196 2.542z"/><path fill="#608180" d="M476.416 23.711h40.98v139.601h-40.98z"/><path fill="#F45252" d="M492.178 30.359h10.508v127.255h-10.508z"/><path fill="#FF3D7F" d="M75.016 35.711h40.98v127.255h-40.98z"/><path fill="#FFF" d="M75.016 50.906h40.98v5.698h-40.98zM75.016 140.174h40.98v5.698H75.016v-5.698z"/><g><path fill="#E68A2E" d="M179.684 24.691h40.98v139.601h-40.98z"/><path fill="#DAD8A7" d="M179.684 56.03h40.98v5.698h-40.98zM179.684 93.067h40.98v5.698h-40.98zM179.684 129.154h40.98v5.698h-40.98z"/></g><g><path fill="#3FB8AF" d="M283.488 24.711h40.98v139.601h-40.98z"/><path fill="#7B0B0B" d="M283.488 80.05h40.98v5.698h-40.98zM283.488 93.087h40.98v5.698h-40.98zM283.488 105.174h40.98v5.698h-40.98z"/></g><g><path fill="#FF9E9D" d="M19 38.113l40.675-4.994 7.874 64.132 7.634 62.174-40.675 4.994z"/><path fill="#4C957E" d="M34.645 36.192l10.43-1.28 15.508 126.306-10.43 1.28z"/></g><g><path fill="#DAD8A7" d="M398.14 32.711h40.98v127.255h-40.98z"/><path fill="#FFF" d="M399.14 47.906h40v5.698h-40zM398.14 137.174h40v5.698h-40.001v-5.698z"/></g></g><g transform="translate(0 420.14)"><use stroke="#FF4438" mask="url(#e)" stroke-width="38" fill="#C23A26" xlink:href="#b"/><path fill="#A1DBB8" d="M157.878 35.51l20.965 1.465-8.877 126.945L149 162.454l4.792-68.527z"/><path fill="#7FA757" d="M119.789 24.691h25.219v139.601h-25.22z"/><path fill="#608180" d="M321.488 24.691h40.98v139.601h-40.98z"/><path fill="#F45252" d="M337.25 31.34h10.508v127.254H337.25z"/><path fill="#7FC7AF" d="M275.508 35.138h40.98v127.255h-40.98z"/><path fill="#FFF" d="M275.508 127.333h40.98v5.698h-40.98zM275.508 139.6h40.98v5.699H275.508V139.6z"/><path fill="#3FB8AF" d="M21.016 37.037h40.98v127.255h-40.98z"/><path fill="#FFF" d="M21.016 52.232h40.98v5.698h-40.98zM21.016 141.5h40.98v5.698H21.016V141.5z"/><path fill="#FF9E9D" d="M179.684 24.691h40.98v139.601h-40.98z"/><path fill="#7B0B0B" d="M179.684 140.03h40.98v5.698h-40.98zM179.684 118.067h40.98v5.698h-40.98zM179.684 129.154h40.98v5.698h-40.98z"/><g><path fill="#A1DBB8" d="M368.824 24.691h40.98v139.601h-40.98z"/><path fill="#3FB8AF" d="M368.824 56.03h40.98v5.698h-40.98zM368.824 93.067h40.98v5.698h-40.98zM368.824 129.154h40.98v5.698h-40.98z"/></g><g><path fill="#E68A2E" d="M467.598 22.792h40.98v139.6h-40.98z"/><path fill="#7B0B0B" d="M467.598 91.168h40.98v5.698h-40.98zM467.598 127.255h40.98v5.698h-40.98z"/></g><g><path fill="#3FB8AF" d="M62.821 37.991l40.675-4.994 7.875 64.133 7.634 62.173-40.675 4.995z"/><path fill="#4C957E" d="M78.466 36.07l10.43-1.28 15.508 126.306-10.43 1.28z"/></g><g><path fill="#FF9E9D" d="M425.641 20.916l40.756 4.284-7.41 70.495-7.182 68.34-40.756-4.283z"/><path fill="#4C957E" d="M441.317 22.564l10.45 1.098L437.175 162.5l-10.45-1.099z"/></g><g><path fill="#195B78" d="M230.121 35.138h40.98v127.255h-40.98z"/><path fill="#FFF" d="M230.121 127.333h40.98v5.698h-40.98zM230.121 139.6h40.98v5.699h-40.98V139.6z"/></g></g><g transform="translate(0 583.483)"><use stroke="#FF4438" mask="url(#f)" stroke-width="38" fill="#C23A26" xlink:href="#c"/><path fill="#FF3D7F" d="M317.077 34.711l20.965 1.466-8.877 126.945-20.965-1.466 4.792-68.528z"/><path fill="#7FA757" d="M338.016 23.711h25.219v139.601h-25.22z"/><path fill="#608180" d="M168.016 24.711h40.98v139.601h-40.98z"/><path fill="#F45252" d="M183.778 31.359h10.508v127.255h-10.508z"/><path fill="#195B78" d="M34.016 34.711h40.98v127.255h-40.98z"/><path fill="#7FC7AF" d="M34.016 49.906h40.98v5.698h-40.98zM34.016 139.174h40.98v5.698H34.016v-5.698z"/><path fill="#FF9E9D" d="M120.016 35.711h40.98v127.255h-40.98z"/><path fill="#FFF" d="M120.016 50.906h40.98v5.698h-40.98zM120.016 140.174h40.98v5.698H120.016v-5.698z"/><g><path fill="#E68A2E" d="M431.016 22.711h40.98v139.601h-40.98z"/><path fill="#7B0B0B" d="M431.016 54.05h40.98v5.698h-40.98zM431.016 127.174h40.98v5.698h-40.98z"/></g><g><path fill="#A1DBB8" d="M79.016 22.711h40.98v139.601h-40.98z"/><path fill="#7B0B0B" d="M79.016 138.05h40.98v5.698h-40.98zM79.016 117.087h40.98v5.698h-40.98zM79.016 127.174h40.98v5.698h-40.98z"/></g><g><path fill="#DAD8A7" d="M209.016 23.711h40.98v139.601h-40.98z"/><path fill="#FF3D7F" d="M209.016 55.05h40.98v5.698h-40.98zM209.016 92.087h40.98v5.698h-40.98zM209.016 128.174h40.98v5.698h-40.98z"/></g><g><path fill="#3FB8AF" d="M256.662 24.132h40.98V162.92h-40.98z"/><path fill="#4C957E" d="M272.424 24.132h10.508V162.92h-10.508z"/></g><g><path fill="#3FB8AF" d="M390.755 19.711l40.756 4.284-7.41 70.494-7.182 68.341-40.756-4.283z"/><path fill="#4C957E" d="M406.43 21.359l10.451 1.098-14.592 138.836-10.45-1.098z"/></g></g><g transform="translate(186)"><path d="M106.096 10.951L110.94 0c42.84 13.124 73.989 52.94 73.989 100.021 0 54.958-42.442 100.016-96.381 104.276v30.347c1.928 3.85 4.253 7.376 6.918 9.39 8.24 6.227 36.565 10.707 36.565 10.707H32.415s27.079-5.346 34.174-10.707c2.82-2.131 5.869-4.51 8.518-9.39v-30.138c-17.554-.834-33.976-5.984-48.227-14.41l5.427-12.27a91.928 91.928 0 0 0 8.528 4.593l71.938-169.234a91.477 91.477 0 0 0-6.677-2.234zm13.229 5.006L47.38 185.205c10.187 3.877 21.242 6 32.793 6 50.868 0 92.104-41.177 92.104-91.973 0-36.816-21.662-68.58-52.953-83.275z" fill="#CA7C7C"/><ellipse fill="#7DFAFF" cx="79.85" cy="97.895" rx="79.85" ry="79.737"/><path d="M45.973 129.247c8.538-1.265 9.646-17.192 17.338-19.872 2.345-.817 10.392 29.676 14.677 34.65.845.98 4.492 2.212 3.614 0-.878-2.213-6.268-7.83-5.852-10.518.834-5.392 1.59-4.71 2.238-4.26 6.146 4.26 8.848 1.337 9.723 0 0-5.07-4.476-13.225-3.924-14.472 4.673-10.55 11.307-9.92 11.307-16.977 0-2.598 5.516 6.568 10.476-1.88 2.094-3.565-8.628-16.15-7.53-22.711.431-2.576 10.847 6.415 15.77 3.944 4.923-2.47 5.626-5.465 5.481-6.443-.827-5.595-12.196-.308-15.503-14.924-.07-.172 12.122 0 12.122 0s-3.701-6.59-2.1-7.22c10.022-3.944 8.759 11.728 14.547 12.654 5.788.926 7.989-8.114 7.904-8.71-.409-2.885-29.173-29.761-41.167-29.105-11.375.623-34.484-2.973-37.723 8.538-3.24 11.51-8.985 6.782-11.398 6.782-4.638 0-6.808-1.662-12.261 1.901-5.2 3.397-15.21 8.669-18.638 11.885C8.051 59.097 1.581 78.857 1.581 94.293c0 15.592 6.446 5.523 18.796 5.632 7.04.061 20.251 17.19 25.596 29.322z" fill="#3FB8AF"/><path d="M113.743 102.181c2.334 0 2.556 1.148 5.057-2.308 2.501-3.456 6.011-10.11 6.011-11.628 0-4.578.54-7.719-2.954-7.719-3.493 0 0 .938 0 5.516 0 2.95-3.7 4.926-8.114 9.561-4.415 4.636-1.242 6.578 0 6.578zM112.055 168.947c7.641 0 10.488-7.67 10.488-14.21 0-6.54 0-7.864-9.697-7.864-1.652 0-8.138 6.542-10.545 7.864s-20.242 6.715-20.242 11.842c0 1.888 8.238 4.574 9.156 6.158.919 1.584 15.405-3.79 20.84-3.79zM77.769 152.199c12.435 2.484 14.095 4.315 14.095 4.315H79.532c-3.514 0-9.02-6.415-9.02-6.415l-3.311-6.415s5.667 7.536 10.568 8.515zM96.058 153.671s5.93-2.634 5.93-5.25-.114-7.188-3.389-7.188c-1.376 0-2.541 5.962-2.541 5.962s-5.93-.29-5.93 1.226c0 2.616 5.93 5.25 5.93 5.25z" fill="#3FB8AF"/></g></g></svg>