<svg xmlns="http://www.w3.org/2000/svg" viewBox="0 0 465 271" xmlns:xlink="http://www.w3.org/1999/xlink"><defs><path id="b" d="M498.383.164v297.84H.445z"/><path id="d" d="M0 0h502.414L0 305.003z"/><rect id="a" width="2.992" height="2.99" x="319.181" y="251.231" rx="1.495"/><mask id="f" width="2.992" height="2.99" x="0" y="0" fill="#fff"><use xlink:href="#a"/></mask></defs><g fill="none" fill-rule="evenodd"><path d="M-21-28h500v300H-21z"/><g transform="translate(-18 -27)"><mask id="c" fill="#fff"><use xlink:href="#b"/></mask><path stroke="#FFF" stroke-width="2" d="M292.096 183.936c-10.355 18.65-33.89 25.384-52.565 15.043-18.675-10.34-25.42-33.843-15.064-52.492 10.355-18.65 33.89-25.385 52.565-15.043 18.675 10.341 25.42 33.842 15.064 52.492zm-18.623-46.084c-15.13-8.378-34.198-2.921-42.588 12.19-8.39 15.11-2.927 34.15 12.204 42.528 15.131 8.379 34.198 2.922 42.59-12.188 8.39-15.11 2.925-34.15-12.206-42.53zm2.313 51.906c.556.924-3.38 3.286-3.936 2.36l-11.48-19.084a8.32 8.32 0 0 1-6.203-.76 8.302 8.302 0 0 1-3.932-4.851l-22.292.385c-1.08.018-1.159-4.566-.08-4.584l22.29-.386a8.338 8.338 0 0 1 .764-1.884c1.847-3.327 5.639-4.895 9.174-4.077l10.81-19.469c.524-.943 4.54 1.28 4.016 2.224l-10.81 19.469a8.321 8.321 0 0 1 .2 11.573l11.479 19.084zm-16.127-27.027c-1.372-.76-3.1-.265-3.86 1.105s-.266 3.096 1.105 3.855c1.372.76 3.1.265 3.86-1.105a2.834 2.834 0 0 0-1.105-3.855zm143.809 52.547c-8.455 15.228-27.672 20.727-42.92 12.283-15.25-8.443-20.756-27.633-12.3-42.86 8.455-15.229 27.671-20.728 42.92-12.284 15.249 8.444 20.756 27.633 12.3 42.861zm-15.206-37.628c-12.355-6.842-27.923-2.386-34.774 9.952-6.851 12.338-2.39 27.885 9.965 34.726 12.355 6.841 27.924 2.386 34.775-9.952 6.85-12.337 2.39-27.885-9.966-34.726zm1.889 42.382c.454.755-2.76 2.683-3.214 1.928l-9.374-15.583a6.794 6.794 0 0 1-5.065-.621 6.78 6.78 0 0 1-3.21-3.962l-18.202.315c-.882.015-.946-3.728-.065-3.743l18.2-.315a6.816 6.816 0 0 1 8.114-4.867l8.827-15.897c.428-.77 3.707 1.046 3.28 1.816l-8.828 15.896a6.795 6.795 0 0 1 .165 9.45l9.372 15.583zm-13.168-22.068a2.32 2.32 0 0 0-3.153.902 2.314 2.314 0 0 0 .903 3.148 2.32 2.32 0 0 0 3.153-.902 2.314 2.314 0 0 0-.903-3.148z" mask="url(#c)"/><g transform="translate(71 126.593)" mask="url(#c)"><path stroke="#FFF" stroke-width="2" d="M106.45 17.384l.378-1.193c0 .001-2.221-1.4-1.867-2.512.353-1.114 1.796-5.648 1.796-5.648a2.399 2.399 0 0 0-1.564-3.013l-8.06-2.553a2.405 2.405 0 0 0-3.018 1.56l-1.796 5.648c-.355 1.113-2.979.976-2.979.976l-.343 1.079a67.536 67.536 0 0 0-7.824-.95l-.09-1.046c.001 0-2.592-.443-2.69-1.608-.101-1.166-.504-5.904-.504-5.904A2.406 2.406 0 0 0 75.287.034L66.86.753a2.4 2.4 0 0 0-2.19 2.594l.504 5.903c.1 1.166-2.378 2.04-2.378 2.04l.073.853a67.893 67.893 0 0 0-7.699 2.128l-.35-.677c-.002 0-2.57.582-3.103-.455-.541-1.037-2.733-5.26-2.733-5.26a2.407 2.407 0 0 0-3.242-1.027l-7.508 3.88a2.4 2.4 0 0 0-1.029 3.233l2.733 5.262c.54 1.04-1.416 2.794-1.416 2.794l.236.454a67.841 67.841 0 0 0-6.426 4.971l-.3-.251s-2.143 1.516-3.04.763l-4.544-3.817a2.408 2.408 0 0 0-3.386.287l-5.446 6.455a2.392 2.392 0 0 0 .29 3.382s3.645 3.062 4.54 3.816c.896.753-.237 3.122-.237 3.122l.092.077a67.15 67.15 0 0 0-4.089 7.188l-.014-.004c0-.003-1.403 2.218-2.515 1.863l-5.66-1.792a2.405 2.405 0 0 0-3.018 1.562l-2.56 8.043a2.4 2.4 0 0 0 1.563 3.012s4.543 1.44 5.66 1.792c.658.21.88 1.206.95 1.99A67.141 67.141 0 0 0 9.34 75.51c-.257.643-.654 1.283-1.223 1.331l-5.916.504A2.403 2.403 0 0 0 .008 79.94l.72 8.408a2.406 2.406 0 0 0 2.603 2.186s4.749-.407 5.916-.504c.47-.04.892.337 1.229.8a67.555 67.555 0 0 0 3.262 11.463c-.054.51-.217.974-.596 1.168-1.045.539-5.274 2.726-5.274 2.726a2.4 2.4 0 0 0-1.03 3.235l3.89 7.493a2.408 2.408 0 0 0 3.242 1.027l5.271-2.726c.347-.18.773-.082 1.188.128a67.708 67.708 0 0 0 7.711 9.667c.099.43.09.842-.151 1.128l-3.824 4.532a2.394 2.394 0 0 0 .29 3.38l6.467 5.438a2.406 2.406 0 0 0 3.387-.292s3.07-3.635 3.828-4.528c.244-.291.66-.368 1.109-.34a67.45 67.45 0 0 0 10.778 5.872c.31.391.508.822.382 1.217l-1.798 5.648c-.4 1.262.3 2.61 1.566 3.012l8.058 2.554a2.407 2.407 0 0 0 3.02-1.563l1.796-5.647c.143-.452.662-.697 1.228-.83a67.498 67.498 0 0 0 11.472 1.205c.606.257 1.18.64 1.227 1.176l.505 5.904a2.409 2.409 0 0 0 2.602 2.187l8.425-.718a2.408 2.408 0 0 0 2.192-2.6s-.408-4.737-.51-5.9c-.06-.698.801-1.29 1.504-1.654a67.945 67.945 0 0 0 9.24-2.76c.736-.116 2.31-.26 2.717.527l2.732 5.263a2.412 2.412 0 0 0 3.243 1.026l7.507-3.885a2.396 2.396 0 0 0 1.03-3.232s-2.193-4.224-2.733-5.261c-.541-1.04 1.415-2.792 1.415-2.792l-.083-.16a67.748 67.748 0 0 0 6.348-5.202l.224.189c0-.002 2.145-1.521 3.042-.764.897.75 4.54 3.816 4.54 3.816a2.408 2.408 0 0 0 3.388-.29l5.447-6.452a2.4 2.4 0 0 0-.287-3.382s-3.646-3.063-4.54-3.818c-.898-.754.235-3.118.235-3.118l-.422-.355a67.248 67.248 0 0 0 3.791-7.108l.64.202c0-.001 1.403-2.22 2.515-1.866l5.66 1.792a2.408 2.408 0 0 0 3.02-1.56l2.558-8.044c.401-1.261-.299-2.612-1.563-3.012l-5.66-1.792c-1.116-.353-.977-2.974-.977-2.974l-.86-.273c.425-2.632.69-5.263.8-7.88l.979-.084c.001-.002.446-2.59 1.613-2.688l5.916-.504a2.403 2.403 0 0 0 2.19-2.595l-.72-8.408a2.41 2.41 0 0 0-2.602-2.187l-5.915.507c-1.169.1-2.044-2.374-2.044-2.374l-1.156.098a67.594 67.594 0 0 0-2.237-7.502l1.086-.562c-.003.002-.583-2.557.457-3.096 1.042-.537 5.271-2.726 5.271-2.726a2.403 2.403 0 0 0 1.031-3.233l-3.89-7.492a2.408 2.408 0 0 0-3.242-1.027s-4.231 2.19-5.271 2.725c-1.042.54-2.797-1.412-2.797-1.412l-1.157.598a67.698 67.698 0 0 0-4.874-6.077l.84-.994c.002 0-1.518-2.144-.76-3.037l3.822-4.53a2.4 2.4 0 0 0-.29-3.384l-6.465-5.436a2.412 2.412 0 0 0-3.39.29s-3.068 3.636-3.827 4.532c-.753.895-3.124-.236-3.124-.236l-.823.974a67.4 67.4 0 0 0-6.832-3.783z"/><path stroke="#FFF8F8" d="M84.312 67.36L97.103 27.13l-6.709-2.127-12.79 40.23a13.864 13.864 0 0 0-7.139 1.567L41.95 35.615l-5.198 4.74 28.51 31.177a13.83 13.83 0 0 0-1.57 3.331 13.816 13.816 0 0 0-.642 3.605l-41.297 9.06 1.511 6.87 41.293-9.06a13.83 13.83 0 0 0 4.91 5.387L56.7 130.96l6.711 2.124 12.764-40.22c2.52.134 4.988-.43 7.157-1.563l28.51 31.163 5.2-4.744-28.502-31.155a13.834 13.834 0 0 0 1.57-3.33c.383-1.204.592-2.422.642-3.626l41.306-9.054-1.51-6.867-41.313 9.056a13.826 13.826 0 0 0-4.922-5.383z"/><ellipse cx="76.789" cy="79.549" stroke="#FFF" stroke-width="2" rx="56.695" ry="56.616"/></g><g transform="translate(369.215 220.287)" mask="url(#c)"><path stroke="#FFF" stroke-width="2" d="M65.774 10.741l.234-.737c0 .001-1.373-.864-1.154-1.552l1.11-3.49a1.482 1.482 0 0 0-.967-1.862l-4.98-1.577a1.486 1.486 0 0 0-1.865.964s-.89 2.802-1.11 3.49c-.219.687-1.84.603-1.84.603l-.212.667a41.73 41.73 0 0 0-4.834-.587l-.056-.647c.001 0-1.602-.274-1.662-.993l-.312-3.648A1.487 1.487 0 0 0 46.518.02l-5.205.444a1.483 1.483 0 0 0-1.354 1.603l.312 3.648c.062.72-1.47 1.26-1.47 1.26l.045.527a41.95 41.95 0 0 0-4.756 1.315l-.217-.418c-.001 0-1.588.359-1.917-.281-.335-.642-1.689-3.251-1.689-3.251a1.487 1.487 0 0 0-2.003-.634l-4.64 2.397a1.482 1.482 0 0 0-.635 1.998l1.689 3.251c.333.642-.875 1.727-.875 1.727l.145.28a41.918 41.918 0 0 0-3.97 3.072l-.185-.156s-1.325.937-1.879.472l-2.807-2.359a1.488 1.488 0 0 0-2.092.178L9.65 19.082c-.531.625-.45 1.562.179 2.09l2.804 2.357c.555.466-.145 1.93-.145 1.93l.056.047a41.491 41.491 0 0 0-2.526 4.442l-.009-.003c0-.002-.866 1.37-1.554 1.152l-3.497-1.108a1.486 1.486 0 0 0-1.865.965l-1.582 4.97c-.246.78.185 1.614.966 1.861 0 0 2.807.89 3.498 1.107.406.13.543.745.586 1.23a41.486 41.486 0 0 0-.79 6.535c-.16.397-.405.792-.757.822l-3.654.311a1.485 1.485 0 0 0-1.355 1.604l.445 5.195c.07.815.79 1.42 1.608 1.35 0 0 2.934-.25 3.656-.31.29-.025.55.207.759.494a41.741 41.741 0 0 0 2.016 7.082c-.034.316-.135.602-.369.722l-3.259 1.685a1.483 1.483 0 0 0-.635 1.998l2.403 4.63a1.488 1.488 0 0 0 2.003.635l3.257-1.685c.214-.11.478-.05.734.08a41.836 41.836 0 0 0 4.765 5.973c.06.265.055.52-.094.696l-2.363 2.8c-.53.627-.448 1.561.179 2.089l3.996 3.36a1.487 1.487 0 0 0 2.093-.18s1.897-2.246 2.365-2.798c.151-.18.408-.227.685-.21a41.676 41.676 0 0 0 6.66 3.628c.191.242.314.508.236.752l-1.11 3.49c-.248.78.185 1.613.967 1.861l4.979 1.578a1.487 1.487 0 0 0 1.866-.965s.89-2.802 1.11-3.49c.088-.28.409-.43.758-.512 2.368.455 4.738.7 7.089.744.374.159.729.395.758.726l.312 3.649c.07.814.79 1.419 1.607 1.351l5.206-.444a1.488 1.488 0 0 0 1.355-1.607l-.315-3.645c-.037-.431.495-.797.929-1.022a41.982 41.982 0 0 0 5.709-1.705c.455-.072 1.427-.16 1.679.326l1.688 3.252a1.49 1.49 0 0 0 2.004.633l4.638-2.4a1.48 1.48 0 0 0 .636-1.997s-1.354-2.61-1.688-3.25c-.334-.644.874-1.726.874-1.726l-.051-.099a41.86 41.86 0 0 0 3.922-3.214l.14.117c0-.001 1.324-.94 1.878-.473.555.464 2.805 2.358 2.805 2.358a1.488 1.488 0 0 0 2.094-.178l3.366-3.987a1.483 1.483 0 0 0-.178-2.09l-2.805-2.359c-.555-.466.145-1.927.145-1.927l-.26-.219a41.551 41.551 0 0 0 2.342-4.392l.395.125s.867-1.372 1.554-1.153l3.498 1.107a1.488 1.488 0 0 0 1.866-.964l1.58-4.97a1.482 1.482 0 0 0-.966-1.86l-3.497-1.108c-.69-.219-.604-1.838-.604-1.838l-.531-.168c.263-1.627.426-3.252.494-4.87l.605-.052c.001 0 .276-1.6.997-1.66l3.655-.312a1.485 1.485 0 0 0 1.354-1.603l-.445-5.195a1.489 1.489 0 0 0-1.608-1.352l-3.655.314c-.722.061-1.263-1.468-1.263-1.468l-.714.061a41.765 41.765 0 0 0-1.382-4.635l.67-.347c-.001 0-.36-1.58.283-1.913l3.257-1.684a1.485 1.485 0 0 0 .637-1.998l-2.404-4.63a1.488 1.488 0 0 0-2.002-.634s-2.615 1.353-3.258 1.684c-.644.333-1.728-.873-1.728-.873l-.715.37a41.83 41.83 0 0 0-3.011-3.755l.519-.615s-.938-1.324-.47-1.876l2.362-2.8a1.482 1.482 0 0 0-.18-2.09l-3.994-3.359a1.49 1.49 0 0 0-2.095.179l-2.364 2.8c-.465.554-1.93-.145-1.93-.145l-.51.602a41.646 41.646 0 0 0-4.22-2.338z"/><path stroke="#FFF8F8" d="M52.095 41.621L60 16.763l-4.146-1.315-7.903 24.859a8.567 8.567 0 0 0-4.41.967L25.92 22.006l-3.212 2.928L40.324 44.2a8.545 8.545 0 0 0-.97 2.058 8.537 8.537 0 0 0-.397 2.227L13.44 54.083l.934 4.244L39.89 52.73a8.545 8.545 0 0 0 3.033 3.329l-7.889 24.86 4.147 1.312 7.887-24.85a8.568 8.568 0 0 0 4.422-.967l17.616 19.255 3.213-2.931-17.611-19.25a8.548 8.548 0 0 0 .97-2.058 8.541 8.541 0 0 0 .397-2.24l25.522-5.595-.932-4.243-25.528 5.596a8.543 8.543 0 0 0-3.04-3.326z"/><ellipse cx="47.447" cy="49.152" stroke="#FFF" stroke-width="2" rx="35.031" ry="34.982"/></g><g transform="translate(292.417 79.746)" mask="url(#c)"><path stroke="#FFF" stroke-width="2" d="M65.432 10.685l.233-.733c0 .001-1.365-.86-1.148-1.544l1.104-3.471a1.474 1.474 0 0 0-.961-1.853l-4.954-1.569a1.478 1.478 0 0 0-1.855.96l-1.104 3.47c-.219.685-1.832.6-1.832.6l-.21.664a41.513 41.513 0 0 0-4.81-.583l-.055-.644s-1.593-.272-1.653-.988c-.063-.717-.31-3.63-.31-3.63a1.48 1.48 0 0 0-1.6-1.343l-5.179.442a1.476 1.476 0 0 0-1.346 1.595l.31 3.628c.062.716-1.462 1.254-1.462 1.254l.045.524c-1.606.343-3.186.78-4.732 1.308l-.216-.416c-.001 0-1.58.357-1.907-.28-.333-.637-1.68-3.233-1.68-3.233a1.48 1.48 0 0 0-1.993-.631l-4.615 2.385a1.475 1.475 0 0 0-.632 1.987l1.68 3.235c.331.638-.87 1.717-.87 1.717l.144.279a41.7 41.7 0 0 0-3.95 3.056l-.184-.155s-1.317.932-1.869.47c-.55-.464-2.792-2.347-2.792-2.347a1.48 1.48 0 0 0-2.082.177L9.6 18.983a1.47 1.47 0 0 0 .178 2.079l2.79 2.345c.551.463-.145 1.92-.145 1.92l.056.047a41.276 41.276 0 0 0-2.513 4.418l-.009-.002c0-.002-.862 1.363-1.546 1.145l-3.48-1.101a1.478 1.478 0 0 0-1.854.96l-1.574 4.943a1.476 1.476 0 0 0 .961 1.852l3.48 1.102c.404.128.54.74.583 1.222a41.27 41.27 0 0 0-.787 6.502c-.158.395-.402.788-.752.818-.716.06-3.636.31-3.636.31a1.477 1.477 0 0 0-1.347 1.594l.443 5.168c.07.811.785 1.413 1.6 1.344 0 0 2.918-.25 3.636-.31.289-.024.548.208.755.493a41.525 41.525 0 0 0 2.006 7.045c-.034.314-.134.599-.367.718l-3.242 1.676a1.475 1.475 0 0 0-.632 1.988l2.39 4.606a1.48 1.48 0 0 0 1.993.631l3.24-1.675c.213-.11.475-.05.73.078a41.619 41.619 0 0 0 4.74 5.943c.06.264.055.517-.093.693l-2.35 2.786a1.471 1.471 0 0 0 .177 2.077l3.976 3.343a1.479 1.479 0 0 0 2.082-.18s1.887-2.234 2.353-2.783c.15-.179.405-.226.681-.209a41.46 41.46 0 0 0 6.626 3.61c.19.24.312.505.235.748l-1.106 3.471a1.476 1.476 0 0 0 .963 1.852l4.953 1.57a1.48 1.48 0 0 0 1.856-.96l1.104-3.472c.088-.278.407-.429.755-.51a41.49 41.49 0 0 0 7.052.74c.372.158.725.394.754.723l.31 3.63a1.48 1.48 0 0 0 1.6 1.344l5.179-.442a1.48 1.48 0 0 0 1.347-1.598s-.25-2.912-.313-3.627c-.037-.429.492-.793.924-1.016 1.936-.432 3.834-1 5.68-1.697.452-.071 1.42-.16 1.67.324l1.679 3.235a1.483 1.483 0 0 0 1.993.63l4.615-2.387a1.473 1.473 0 0 0 .632-1.987s-1.347-2.596-1.68-3.234c-.332-.639.87-1.716.87-1.716l-.05-.098a41.643 41.643 0 0 0 3.902-3.198l.137.116s1.318-.935 1.87-.47c.552.462 2.79 2.346 2.79 2.346a1.48 1.48 0 0 0 2.083-.177l3.348-3.967a1.475 1.475 0 0 0-.176-2.079s-2.241-1.882-2.791-2.346c-.552-.464.145-1.917.145-1.917l-.26-.218a41.336 41.336 0 0 0 2.33-4.37l.393.125s.863-1.364 1.547-1.147l3.48 1.101a1.48 1.48 0 0 0 1.856-.959l1.572-4.944a1.474 1.474 0 0 0-.961-1.851l-3.48-1.102c-.685-.217-.6-1.828-.6-1.828l-.529-.168c.262-1.618.425-3.235.492-4.844l.602-.051c0-.001.274-1.592.991-1.652l3.637-.31a1.477 1.477 0 0 0 1.347-1.595l-.443-5.168a1.481 1.481 0 0 0-1.6-1.345l-3.635.312c-.719.061-1.257-1.46-1.257-1.46l-.71.061a41.548 41.548 0 0 0-1.376-4.611l.668-.346c-.002.001-.358-1.572.28-1.903.641-.33 3.241-1.675 3.241-1.675a1.477 1.477 0 0 0 .634-1.988l-2.392-4.605a1.48 1.48 0 0 0-1.992-.631s-2.601 1.346-3.24 1.675c-.64.331-1.72-.868-1.72-.868l-.71.368a41.612 41.612 0 0 0-2.997-3.736l.517-.611s-.933-1.318-.468-1.867l2.35-2.785a1.475 1.475 0 0 0-.178-2.079l-3.974-3.342a1.482 1.482 0 0 0-2.084.178s-1.886 2.236-2.352 2.786c-.463.55-1.92-.145-1.92-.145l-.506.6a41.43 41.43 0 0 0-4.2-2.327z"/><path stroke="#FFF8F8" d="M51.825 41.405l7.862-24.73-4.124-1.307-7.862 24.73a8.522 8.522 0 0 0-4.387.962L25.785 21.892l-3.195 2.913L40.115 43.97a8.501 8.501 0 0 0-.966 2.048 8.492 8.492 0 0 0-.394 2.215l-25.384 5.57.929 4.222 25.381-5.569a8.5 8.5 0 0 0 3.019 3.312L34.85 80.498l4.126 1.306 7.845-24.723a8.523 8.523 0 0 0 4.4-.96l17.524 19.155 3.197-2.917-17.52-19.15c.403-.622.73-1.307.966-2.047.235-.74.363-1.488.394-2.228l25.39-5.566-.928-4.221-25.395 5.567a8.499 8.499 0 0 0-3.025-3.31z"/><ellipse cx="47.201" cy="48.897" stroke="#FFF" stroke-width="2" rx="34.849" ry="34.801"/></g><g transform="translate(395.147 26.92)" mask="url(#c)"><path stroke="#FFF" stroke-width="2" d="M41.21 6.16V6.16c0-.001-2.373-.208-2.55-1.252l-.44-2.59a2.179 2.179 0 0 0-2.51-1.78L28.155 1.81a2.178 2.178 0 0 0-1.784 2.506l.439 2.59c.178 1.045-1.995 2.019-1.995 2.019A32.416 32.416 0 0 0 11.708 19.71a32.327 32.327 0 0 0-5.897 15.9h-.004c.001.002-.207 2.368-1.253 2.546l-2.595.438A2.176 2.176 0 0 0 .172 41.1l1.277 7.538a2.178 2.178 0 0 0 2.511 1.78s1.551-.26 2.596-.439c1.047-.175 2.023 1.994 2.023 1.994h.003a32.38 32.38 0 0 0 10.805 13.079 32.47 32.47 0 0 0 15.93 5.885v.003c.002.001 2.375.207 2.552 1.25a2756 2756 0 0 0 .439 2.593 2.18 2.18 0 0 0 2.51 1.78l7.554-1.275a2.175 2.175 0 0 0 1.784-2.506l-.438-2.59c-.178-1.043 1.995-2.017 1.995-2.017v-.003a32.422 32.422 0 0 0 13.11-10.784 32.326 32.326 0 0 0 5.897-15.906c.014-.124.24-2.366 1.257-2.538l2.596-.438A2.177 2.177 0 0 0 76.358 36l-1.278-7.54a2.179 2.179 0 0 0-2.511-1.78s-1.55.26-2.597.439c-1.046.174-2.021-1.993-2.021-1.993h-.003a32.386 32.386 0 0 0-10.806-13.081A32.475 32.475 0 0 0 41.21 6.16z"/><ellipse cx="37.829" cy="38.7" stroke="#FFF" stroke-width="2" rx="18.659" ry="18.633"/><ellipse cx="37.705" cy="39.545" fill="#FFF" fill-rule="nonzero" rx="5.433" ry="5.421"/></g><g transform="translate(379.19 78.75)" mask="url(#c)"><path stroke="#FFF" stroke-width="2" d="M18.732 2.8c0-.001-1.079-.095-1.16-.57l-.199-1.177a.99.99 0 0 0-1.141-.81l-3.434.58a.99.99 0 0 0-.811 1.139l.2 1.177c.08.475-.907.918-.907.918A14.735 14.735 0 0 0 5.322 8.96a14.694 14.694 0 0 0-2.681 7.227h-.002c0 .001-.094 1.077-.57 1.157l-1.179.2a.99.99 0 0 0-.812 1.139l.58 3.426a.99.99 0 0 0 1.142.81l1.18-.2c.476-.08.92.906.92.906a14.718 14.718 0 0 0 4.912 5.945 14.76 14.76 0 0 0 7.241 2.675v.001c.001 0 1.08.095 1.16.569l.2 1.178a.99.99 0 0 0 1.14.81l3.434-.58a.989.989 0 0 0 .811-1.14l-.199-1.176c-.08-.475.907-.917.907-.917v-.002a14.737 14.737 0 0 0 5.959-4.902 14.694 14.694 0 0 0 2.68-7.23c.007-.056.11-1.075.572-1.153l1.18-.2a.99.99 0 0 0 .811-1.138l-.58-3.427a.99.99 0 0 0-1.142-.81l-1.18.2c-.476.08-.92-.906-.92-.906a14.72 14.72 0 0 0-4.913-5.946A14.761 14.761 0 0 0 18.732 2.8z"/><ellipse cx="17.195" cy="17.591" stroke="#FFF" stroke-width="2" rx="8.481" ry="8.47"/><ellipse cx="18.045" cy="17.522" fill="#FFF" fill-rule="nonzero" rx="2.469" ry="2.464"/></g><path d="M346.326 294.053v-.002c-.001-.002-3.518.495-4.127-.964l-1.507-3.619a3.25 3.25 0 0 0-4.247-1.744l-10.552 4.386a3.249 3.249 0 0 0-1.753 4.24l1.508 3.618c.61 1.46-2.221 3.604-2.221 3.604v.002a48.354 48.354 0 0 0-15.432 20.073c-3.404 8.235-4.372 16.864-3.236 25.091l-.005.002c.002.001.494 3.511-.967 4.12-1.462.607-3.625 1.508-3.625 1.508a3.246 3.246 0 0 0-1.754 4.242l4.386 10.529a3.25 3.25 0 0 0 4.246 1.744s2.167-.898 3.626-1.509c1.463-.605 3.61 2.22 3.61 2.22l.003-.002c5.04 6.602 11.85 11.996 20.094 15.386a48.43 48.43 0 0 0 25.126 3.21l.002.004c.004 0 3.521-.496 4.128.962l1.508 3.62a3.252 3.252 0 0 0 4.246 1.746l10.55-4.388a3.244 3.244 0 0 0 1.753-4.242l-1.506-3.617c-.609-1.457 2.223-3.602 2.223-3.602l-.002-.005a48.362 48.362 0 0 0 15.435-20.073c3.405-8.238 4.371-16.87 3.234-25.1-.022-.184-.446-3.52.975-4.11 1.46-.609 3.626-1.508 3.626-1.508a3.248 3.248 0 0 0 1.753-4.24l-4.387-10.53a3.25 3.25 0 0 0-4.248-1.746s-2.165.898-3.626 1.509c-1.462.604-3.606-2.219-3.606-2.219l-.005.002c-5.041-6.602-11.85-11.998-20.095-15.39a48.437 48.437 0 0 0-25.13-3.208z" fill-rule="nonzero" stroke="#FFF" stroke-width="2" mask="url(#c)"/><g transform="translate(51.982 260.114)" stroke="#FFF" stroke-width="2" mask="url(#c)"><path d="M65.23 17.726v-.001c-.002-.001-1.583-1.823-.948-2.685l1.575-2.142c.72-.978.483-2.335-.529-3.03l-6.449-4.43c-1.011-.696-2.418-.466-3.136.512l-1.575 2.14c-.595.81-2.659.118-2.91.03a34.438 34.438 0 0 0-8.843-1.96V6.16c0-.001-2.45-.208-2.634-1.252l-.453-2.59C39.12 1.133 37.96.336 36.735.536L28.932 1.81c-1.224.202-2.048 1.323-1.843 2.506l.454 2.59c.184 1.045-2.06 2.019-2.06 2.019a33.639 33.639 0 0 0-7.735 4.7c-.355.271-1.917 1.397-2.706.858l-2.215-1.525c-1.013-.694-2.418-.464-3.137.513l-4.585 6.232c-.72.978-.481 2.337.53 3.032 0 0 1.324.908 2.215 1.522.894.614.02 2.835.02 2.835a31.405 31.405 0 0 0-2.016 8.518H5.85c.001.002-.213 2.368-1.294 2.546l-2.68.438C.65 38.794-.174 39.916.03 41.1l1.32 7.538c.207 1.183 1.369 1.98 2.593 1.78 0 0 1.601-.26 2.681-.439 1.08-.175 2.089 1.994 2.089 1.994h.003a32.176 32.176 0 0 0 4.8 7.4c.002 0 1.583 1.823.947 2.688-.633.862-1.575 2.14-1.575 2.14a2.126 2.126 0 0 0 .53 3.03l6.45 4.43c1.012.697 2.416.467 3.136-.512 0 0 .941-1.278 1.575-2.142.635-.862 2.934-.019 2.934-.019a34.436 34.436 0 0 0 8.815 1.949v.003c.003.001 2.453.207 2.636 1.25l.453 2.593c.207 1.182 1.369 1.978 2.593 1.78l7.801-1.275c1.225-.2 2.05-1.322 1.843-2.506l-.453-2.59c-.183-1.043 2.062-2.017 2.062-2.017l-.001-.003a33.651 33.651 0 0 0 7.663-4.64c.002 0 1.885-1.528 2.779-.917.892.615 2.216 1.524 2.216 1.524 1.012.695 2.415.466 3.136-.513l4.584-6.231c.72-.98.483-2.336-.529-3.032 0 0-1.322-.908-2.218-1.52-.891-.614-.018-2.835-.018-2.835a31.407 31.407 0 0 0 2.018-8.526c.014-.124.247-2.366 1.298-2.538l2.681-.438c1.223-.2 2.049-1.323 1.843-2.505l-1.32-7.54c-.209-1.184-1.37-1.98-2.593-1.78 0 0-1.6.26-2.681.439-1.081.174-2.088-1.993-2.088-1.993h-.004a32.181 32.181 0 0 0-4.8-7.401z"/><ellipse cx="40.189" cy="38.7" rx="18.659" ry="18.633"/><ellipse cx="40.624" cy="38.548" rx="5.433" ry="5.421"/></g><g transform="rotate(-8 953.71 -2655.934)" stroke="#FFF" stroke-width="2" mask="url(#c)"><path d="M80.092 22.33v-.001c-.002-.002-1.943-2.297-1.163-3.382l1.934-2.699a2.722 2.722 0 0 0-.65-3.817l-7.918-5.582a2.777 2.777 0 0 0-3.851.647l-1.934 2.696c-.73 1.02-3.264.148-3.573.036a41.375 41.375 0 0 0-10.858-2.467v-.002c0-.002-3.009-.262-3.234-1.577l-.556-3.264c-.255-1.49-1.68-2.494-3.184-2.242l-9.58 1.604c-1.504.254-2.516 1.667-2.264 3.157l.558 3.262c.225 1.317-2.53 2.544-2.53 2.544v.001a41.121 41.121 0 0 0-9.497 5.92c-.436.342-2.354 1.76-3.323 1.08l-2.72-1.92a2.782 2.782 0 0 0-3.852.645L6.27 24.821a2.726 2.726 0 0 0 .649 3.819s1.626 1.144 2.72 1.917c1.098.774.025 3.572.025 3.572a40.42 40.42 0 0 0-2.476 10.73l-.004.001c.001.001-.262 2.983-1.59 3.206l-3.29.552a2.743 2.743 0 0 0-2.264 3.157l1.619 9.496c.255 1.49 1.681 2.495 3.184 2.242 0 0 1.967-.327 3.292-.552 1.328-.22 2.565 2.512 2.565 2.512l.004-.001a40.663 40.663 0 0 0 5.895 9.324c.001 0 1.942 2.295 1.162 3.384-.778 1.087-1.934 2.696-1.934 2.696a2.722 2.722 0 0 0 .651 3.818l7.919 5.58a2.773 2.773 0 0 0 3.85-.645s1.156-1.61 1.934-2.698c.78-1.086 3.603-.024 3.603-.024a41.372 41.372 0 0 0 10.823 2.455l.001.004c.003.001 3.011.261 3.235 1.575l.558 3.266c.253 1.49 1.68 2.492 3.183 2.243l9.579-1.607a2.742 2.742 0 0 0 2.263-3.157l-.556-3.262c-.226-1.314 2.53-2.541 2.53-2.541v-.005c3.349-1.5 6.52-3.454 9.409-5.844.002-.001 2.314-1.925 3.412-1.155l2.72 1.92a2.777 2.777 0 0 0 3.851-.647l5.63-7.85a2.724 2.724 0 0 0-.65-3.819s-1.624-1.144-2.724-1.915c-1.094-.774-.022-3.57-.022-3.57a40.422 40.422 0 0 0 2.477-10.742c.018-.156.304-2.98 1.595-3.196 1.325-.224 3.292-.553 3.292-.553 1.501-.253 2.515-1.667 2.263-3.155l-1.62-9.497a2.761 2.761 0 0 0-3.185-2.244s-1.966.328-3.293.553c-1.327.219-2.563-2.51-2.563-2.51h-.004a40.67 40.67 0 0 0-5.895-9.324z"/><ellipse cx="49.346" cy="48.751" rx="22.911" ry="23.473"/><ellipse cx="49.88" cy="48.561" rx="6.67" ry="6.83"/></g><g transform="translate(244.543 188.39)" mask="url(#c)"><path stroke="#FFF" stroke-width="2" d="M94.9 26.588h.001c-.003-.002-2.3-2.735-1.377-4.027l2.288-3.214a3.255 3.255 0 0 0-.768-4.545l-9.367-6.646a3.271 3.271 0 0 0-4.555.77l-2.287 3.21c-.864 1.214-3.861.176-4.227.043a48.666 48.666 0 0 0-12.842-2.938v-.003c0-.001-3.56-.31-3.826-1.877l-.657-3.887A3.268 3.268 0 0 0 53.516.805l-11.332 1.91a3.267 3.267 0 0 0-2.677 3.759l.66 3.884c.266 1.568-2.993 3.03-2.993 3.03a48.59 48.59 0 0 0-11.233 7.05c-.516.407-2.785 2.096-3.93 1.286l-3.217-2.286a3.277 3.277 0 0 0-4.557.768l-6.658 9.349a3.26 3.26 0 0 0 .768 4.547s1.924 1.362 3.218 2.283c1.298.922.029 4.253.029 4.253h.001a48.399 48.399 0 0 0-2.93 12.777h-.004c.001.002-.31 3.552-1.88 3.818l-3.893.658a3.264 3.264 0 0 0-2.678 3.76l1.915 11.306a3.267 3.267 0 0 0 3.767 2.67s2.326-.39 3.894-.658c1.57-.263 3.034 2.99 3.034 2.99h.004a48.464 48.464 0 0 0 6.973 11.102c.001 0 2.297 2.733 1.375 4.03-.921 1.294-2.288 3.21-2.288 3.21a3.255 3.255 0 0 0 .77 4.546l9.366 6.644a3.266 3.266 0 0 0 4.555-.768s1.367-1.917 2.288-3.212c.922-1.294 4.261-.028 4.261-.028l.001-.001a48.663 48.663 0 0 0 12.801 2.923l.001.005c.004.001 3.562.311 3.827 1.876.265 1.57.66 3.888.66 3.888a3.27 3.27 0 0 0 3.764 2.67l11.33-1.912a3.262 3.262 0 0 0 2.677-3.759l-.657-3.885c-.267-1.564 2.994-3.025 2.994-3.025l-.001-.006a48.602 48.602 0 0 0 11.129-6.96v.002c.002-.002 2.738-2.293 4.036-1.376 1.296.922 3.218 2.286 3.218 2.286a3.271 3.271 0 0 0 4.555-.77l6.658-9.347a3.257 3.257 0 0 0-.768-4.547s-1.92-1.363-3.222-2.282c-1.295-.92-.027-4.25-.027-4.25a48.401 48.401 0 0 0 2.931-12.79c.02-.186.36-3.55 1.886-3.806 1.568-.267 3.894-.658 3.894-.658a3.266 3.266 0 0 0 2.677-3.757l-1.917-11.31a3.268 3.268 0 0 0-3.767-2.67s-2.324.39-3.894.657c-1.57.261-3.032-2.989-3.032-2.989l-.005.001A48.473 48.473 0 0 0 94.9 26.588z"/><ellipse cx="56.695" cy="58.049" stroke="#FFF" stroke-width="2" rx="27.989" ry="27.95"/><ellipse cx="56.351" cy="58.819" fill="#FFF" fill-rule="nonzero" rx="8.149" ry="8.132"/></g><g transform="translate(153.782 259.16)" stroke="#FFF" stroke-width="2" mask="url(#c)"><path d="M102.913 26.001c-.003-.003-2.493-2.754-1.493-4.054 1-1.306 2.481-3.235 2.481-3.235 1.135-1.478.76-3.526-.833-4.576L92.91 7.446c-1.593-1.05-3.808-.703-4.94.775l-2.48 3.231c-.938 1.222-4.188.177-4.585.044a56.25 56.25 0 0 0-13.928-2.958v-.002c0-.002-3.86-.314-4.15-1.89l-.713-3.912C61.786.948 59.958-.256 58.028.046L45.738 1.97c-1.928.305-3.227 1.998-2.903 3.784l.714 3.91c.29 1.579-3.244 3.05-3.244 3.05A53.465 53.465 0 0 0 28.12 19.81c-.56.41-3.02 2.11-4.263 1.295l-3.489-2.301c-1.595-1.048-3.809-.701-4.942.773l-7.22 9.411c-1.134 1.476-.76 3.528.832 4.578 0 0 2.086 1.371 3.49 2.298 1.408.928.032 4.28.032 4.28v.002a45.794 45.794 0 0 0-3.176 12.861h-.006c.002.003-.336 3.576-2.039 3.844l-4.221.662c-1.93.302-3.229 1.996-2.905 3.784L2.29 72.678c.327 1.786 2.157 2.99 4.085 2.687 0 0 2.523-.392 4.224-.662 1.702-.264 3.29 3.011 3.29 3.011h.005a48.416 48.416 0 0 0 7.562 11.175c.002 0 2.492 2.751 1.491 4.057-.998 1.302-2.48 3.231-2.48 3.231-1.134 1.478-.76 3.528.834 4.576l10.159 6.689c1.595 1.053 3.807.706 4.94-.774 0 0 1.483-1.929 2.481-3.233 1-1.302 4.622-.028 4.622-.028v-.001a56.248 56.248 0 0 0 13.885 2.943v.004c.004.002 3.864.314 4.151 1.889l.715 3.914c.326 1.786 2.156 2.987 4.084 2.689l12.288-1.926c1.93-.303 3.229-1.997 2.903-3.784l-.713-3.91c-.289-1.576 3.247-3.046 3.247-3.046v-.006a53.492 53.492 0 0 0 12.07-7.005c.002-.001 2.969-2.308 4.377-1.385 1.406.929 3.49 2.302 3.49 2.302 1.595 1.05 3.805.702 4.94-.775l7.222-9.41c1.135-1.479.76-3.526-.834-4.577 0 0-2.082-1.372-3.494-2.297-1.404-.926-.029-4.279-.029-4.279a45.796 45.796 0 0 0 3.179-12.874c.022-.188.39-3.573 2.045-3.832 1.7-.268 4.224-.662 4.224-.662 1.926-.303 3.226-1.998 2.903-3.782l-2.08-11.384c-.329-1.79-2.157-2.99-4.085-2.69 0 0-2.52.393-4.223.663-1.703.263-3.289-3.01-3.289-3.01l-.005.002A48.424 48.424 0 0 0 102.913 26z"/><ellipse cx="61.682" cy="62.036" rx="27.989" ry="27.95"/></g></g><g transform="translate(-21 -31)"><mask id="e" fill="#fff"><use xlink:href="#d"/></mask><path stroke="#FFF" stroke-width="2" d="M316.189 204.384h15.95c1.106 0 2.003.9 2.003 2v47.83a2 2 0 0 1-2.002 2.001h-22.925c-1.106 0-2.002-.9-2.002-2v-25.909h-9.974v23.924c0 2.2-1.788 3.985-3.98 3.985h-58.864a3.987 3.987 0 0 1-3.98-3.985v-23.924h-15.933c.468 5.71 1.1 11.661 1.833 14.049 1.585 5.164 5.966 7.88 8.614 9.873H186.53h37.259c.826 0 1.738.634 2.026 1.39l.61 1.6h-40.658a2.99 2.99 0 0 1-2.233.997H25.957a2.991 2.991 0 0 1-2.996-2.992v-4.982h72.66-57.7v-83.717a3.993 3.993 0 0 1 3.982-3.996H56.87V38.926a5.978 5.978 0 0 1 5.982-5.981h247.355a5.982 5.982 0 0 1 5.981 5.98v163.466h-18.95 18.95v1.993zm-85.774-1.993H171.57h58.845zM94.772 248.24v1.495c0 .832.67 1.495 1.499 1.495h16.949c.835 0 1.5-.67 1.5-1.495v-1.495H94.771z" mask="url(#e)"/><path stroke="#FFF" stroke-width="2" d="M70.655 159.056l.18-112.157h231.39v141.537l-5.007.124m-82.146 39.89l-43.052.041m58.823-40.853l-58.311.174m94.786 63.918a2.493 2.493 0 1 0-4.986.001 2.493 2.493 0 0 0 4.986-.001z" mask="url(#e)"/><path stroke="#FFF" stroke-width="2" d="M234.903 175.479h58.845v71.765h-58.845z" mask="url(#e)"/><path stroke="#FFF" stroke-width="2" d="M230.415 228.125l.584-57.621a4.043 4.043 0 0 1 4.033-3.996h58.215a3.993 3.993 0 0 1 3.992 3.993v56.869m-125.566 20.752l14.546.325-.5 5.628M57.545 160.528h110.033a3.996 3.996 0 0 1 3.992 3.996v83.717h-56.496" mask="url(#e)"/><use mask="url(#f)" xlink:href="#a" stroke="#FFF" stroke-width="4"/><path stroke="#FFF" stroke-width="2" d="M44.903 167.505v74.756h119.685v-74.756zM310.206 211.362h20.945v37.876h-20.945z" mask="url(#e)"/><path stroke="#FFF" stroke-width="2" d="M307.226 228.201l-.012-21.817a2 2 0 0 1 1.993-2h7.744" mask="url(#e)"/></g></g></svg>