<svg width="314" height="226" viewBox="0 0 314 226" xmlns="http://www.w3.org/2000/svg" xmlns:xlink="http://www.w3.org/1999/xlink"><title>front</title><defs><rect id="a" x="384" y="260" width="3" height="3" rx="1.5"/><mask id="b" x="0" y="0" width="3" height="3" fill="#fff"><use xlink:href="#a"/></mask></defs><g transform="translate(-86 -40)" stroke="#FFF" fill="none" fill-rule="evenodd"><path stroke="none" d="M0 0h500v300H0z"/><path d="M381 213h15.993a2.01 2.01 0 0 1 2.007 2.007v47.986a2.007 2.007 0 0 1-2.007 2.007h-22.986a2.01 2.01 0 0 1-2.007-2.007V237h-10v24.002a3.998 3.998 0 0 1-3.99 3.998h-59.02a4 4 0 0 1-3.99-3.998V237h-15.975c.47 5.729 1.104 11.7 1.838 14.095 1.589 5.18 5.982 7.905 8.637 9.905H251h37.357c.828 0 1.743.636 2.031 1.395L291 264h-40.765c-.55.614-1.35 1-2.24 1H90.006A3 3 0 0 1 87 261.998V257h72.853H102v-83.99c0-2.215 1.793-4.01 3.992-4.01H121V47c0-3.314 2.68-6 5.997-6h248.006A6 6 0 0 1 381 47v164h-19 19v2zm-86-2h-59 59zm-136 46v1.5c0 .834.673 1.5 1.503 1.5h16.994c.838 0 1.503-.672 1.503-1.5V257h-20z" stroke-width="2" fill="none"/><path stroke-width="2" d="M134.82 167.523L135 55h232v142l-5.02.124M279.617 237.145l-43.166.04M295.43 196.2l-58.465.173M332 260.5a2.5 2.5 0 1 0-5 0 2.5 2.5 0 0 0 5 0z"/><path stroke-width="2" d="M299.5 184h59v72h-59z"/><path d="M295 236.818l.586-57.81A4.055 4.055 0 0 1 299.63 175h58.369a4.005 4.005 0 0 1 4.002 4.006v57.055M236.104 256.88l14.583.327-.5 5.647" stroke-width="2"/><path d="M121.676 169h110.322a4.007 4.007 0 0 1 4.002 4.01V257h-56.645" stroke-width="2" fill="none"/><use mask="url(#b)" stroke-width="4" xlink:href="#a"/><path stroke-width="2" fill="none" d="M109 176v75h120v-75z"/><path stroke-width="2" d="M375.001 220h21v38h-21z"/><path d="M372.014 236.895L372 214.996A2 2 0 0 1 374 213h7.765" stroke-width="2"/></g></svg>