<svg width="1211" height="128" viewBox="0 0 1211 128" xmlns="http://www.w3.org/2000/svg" xmlns:xlink="http://www.w3.org/1999/xlink"><title>village</title><defs><path id="a" d="M0 .05h9.475v17.033H0z"/><mask id="y" x="0" y="0" width="9.475" height="17.034" fill="#fff"><use xlink:href="#a"/></mask><path id="b" d="M.095 0h10.086v11.615H.095z"/><mask id="z" x="-1" y="-1" width="12.085" height="13.615"><path fill="#fff" d="M-.905-1h12.086v13.615H-.905z"/><use xlink:href="#b"/></mask><path id="c" d="M.297.204h10.085v11.615H.297z"/><mask id="A" x="-1" y="-1" width="12.085" height="13.615"><path fill="#fff" d="M-.703-.796h12.085v13.615H-.703z"/><use xlink:href="#c"/></mask><path id="d" d="M.297.198h10.087v11.303H.297z"/><mask id="B" x="-1" y="-1" width="12.088" height="13.303"><path fill="#fff" d="M-.703-.802h12.087v13.303H-.703z"/><use xlink:href="#d"/></mask><path id="e" d="M0 .05h9.477v17.152H0z"/><mask id="C" x="0" y="0" width="9.477" height="17.153" fill="#fff"><use xlink:href="#e"/></mask><path id="f" d="M.249.158h8.448v9.007H.249z"/><mask id="D" x="-1" y="-1" width="10.448" height="11.007"><path fill="#fff" d="M-.751-.842H9.697v11.007H-.751z"/><use xlink:href="#f"/></mask><path id="g" d="M0 .04h7.937v13.668H0z"/><mask id="E" x="0" y="0" width="7.937" height="13.669" fill="#fff"><use xlink:href="#g"/></mask><path id="h" d="M.297.198h10.087v11.303H.297z"/><mask id="F" x="-1" y="-1" width="12.088" height="13.303"><path fill="#fff" d="M-.703-.802h12.087v13.303H-.703z"/><use xlink:href="#h"/></mask><path id="i" d="M0 .05h9.477v17.152H0z"/><mask id="G" x="0" y="0" width="9.477" height="17.153" fill="#fff"><use xlink:href="#i"/></mask><path id="j" d="M.297.158h10.087v9.007H.297z"/><mask id="H" x="-1" y="-1" width="12.088" height="11.007"><path fill="#fff" d="M-.703-.842h12.087v11.007H-.703z"/><use xlink:href="#j"/></mask><path id="k" d="M0 .04h9.477v13.668H0z"/><mask id="I" x="0" y="0" width="9.477" height="13.669" fill="#fff"><use xlink:href="#k"/></mask><path id="l" d="M.297.198h10.087v11.303H.297z"/><mask id="J" x="-1" y="-1" width="12.088" height="13.303"><path fill="#fff" d="M-.703-.802h12.087v13.303H-.703z"/><use xlink:href="#l"/></mask><path id="m" d="M0 .05h9.477v17.152H0z"/><mask id="K" x="0" y="0" width="9.477" height="17.153" fill="#fff"><use xlink:href="#m"/></mask><path id="n" d="M.297.198h10.087v11.303H.297z"/><mask id="L" x="-1" y="-1" width="12.088" height="13.303"><path fill="#fff" d="M-.703-.802h12.087v13.303H-.703z"/><use xlink:href="#n"/></mask><path id="o" d="M0 .05h9.477v17.152H0z"/><mask id="M" x="0" y="0" width="9.477" height="17.153" fill="#fff"><use xlink:href="#o"/></mask><path id="p" d="M0 .051h8.99v17.662H0z"/><mask id="N" x="0" y="0" width="8.99" height="17.662" fill="#fff"><use xlink:href="#p"/></mask><path id="q" d="M.652.156H7.95v8.876H.652z"/><mask id="O" x="-1" y="-1" width="9.298" height="10.876"><path fill="#fff" d="M-.348-.844H8.95v10.876H-.348z"/><use xlink:href="#q"/></mask><path id="r" d="M.213.154h7.225v8.788H.213z"/><mask id="P" x="-1" y="-1" width="9.226" height="10.788"><path fill="#fff" d="M-.787-.846h9.225V9.942H-.787z"/><use xlink:href="#r"/></mask><path id="s" d="M0 .051h9.327v17.662H0z"/><mask id="Q" x="0" y="0" width="9.327" height="17.662" fill="#fff"><use xlink:href="#s"/></mask><path id="t" d="M.676.156h7.572v8.876H.676z"/><mask id="R" x="-1" y="-1" width="9.572" height="10.876"><path fill="#fff" d="M-.324-.844h9.572v10.876H-.324z"/><use xlink:href="#t"/></mask><path id="u" d="M.22.154h7.497v8.788H.221z"/><mask id="S" x="-1" y="-1" width="9.497" height="10.788"><path fill="#fff" d="M-.78-.846h9.497V9.942H-.779z"/><use xlink:href="#u"/></mask><path id="v" d="M0 .052h10.35v18.123H0z"/><mask id="T" x="0" y="0" width="10.35" height="18.122" fill="#fff"><use xlink:href="#v"/></mask><path id="w" d="M.324.22h11.017v12.534H.324z"/><mask id="U" x="-.75" y="-.75" width="12.517" height="14.034"><path fill="#fff" d="M-.426-.53h12.517v14.034H-.426z"/><use xlink:href="#w"/></mask><path id="x" d="M.324.22h11.017v12.534H.324z"/><mask id="V" x="-.75" y="-.75" width="12.517" height="14.034"><path fill="#fff" d="M-.426-.53h12.517v14.034H-.426z"/><use xlink:href="#x"/></mask></defs><g fill="none" fill-rule="evenodd"><path fill="#553B26" d="M739.886 83.13h11.587l2.65 45.058h-16.27"/><path d="M736.31 90.391c2.856 1.424 6.159 2.237 9.678 2.237 3.568 0 6.912-.835 9.794-2.295 1.82 1.298 4.143 2.076 6.673 2.076 5.846 0 10.585-4.154 10.585-9.278a8.25 8.25 0 0 0-.669-3.254c4.294-2.091 7.2-6.107 7.2-10.718 0-6.767-6.26-12.252-13.98-12.252a15.9 15.9 0 0 0-3.296.342c.025-.349.037-.701.037-1.056 0-9.24-8.546-16.73-19.088-16.73-10.542 0-19.089 7.49-19.089 16.73 0 .702.05 1.393.145 2.072l-.145-.001c-4.492 0-8.135 3.192-8.135 7.13 0 2.27 1.21 4.292 3.096 5.598-3.86 2.205-6.416 6.048-6.416 10.42 0 6.842 6.259 12.389 13.98 12.389 3.732 0 7.123-1.297 9.63-3.41z" fill="#38A684"/><path fill="#553B26" d="M484.574 91.792h10.098l2.31 36.451h-14.18"/><path d="M475.51 91.52c2.86 3.821 8.018 6.372 13.906 6.372 3.945 0 7.563-1.145 10.381-3.05 1.527.602 3.24.94 5.049.94 6.414 0 11.613-4.244 11.613-9.48 0-3.28-2.042-6.171-5.145-7.873.188-.508.29-1.047.29-1.605 0-3.046-3.026-5.516-6.758-5.516-.058 0-.115 0-.172.002a10.7 10.7 0 0 0 .172-1.913c0-7.148-7.1-12.943-15.857-12.943-7.158 0-13.209 3.871-15.18 9.189-4.301.468-7.619 3.475-7.619 7.114 0 .442.049.874.143 1.294-3.457 1.66-5.781 4.75-5.781 8.29 0 5.292 5.199 9.583 11.613 9.583 1.163 0 2.286-.141 3.345-.404z" fill="#38A684"/><path fill="#553B26" d="M840.502 110.157h4.509l1.03 17.72h-6.33"/><path d="M836.456 110.025c1.277 1.857 3.58 3.097 6.208 3.097 1.761 0 3.376-.557 4.634-1.483a5.704 5.704 0 0 0 2.254.457c2.864 0 5.185-2.063 5.185-4.607 0-1.595-.912-3-2.297-3.828.084-.247.13-.509.13-.78 0-1.481-1.351-2.682-3.018-2.682l-.076.001c.05-.303.076-.614.076-.93 0-3.474-3.169-6.291-7.079-6.291-3.195 0-5.896 1.882-6.776 4.466-1.92.228-3.402 1.69-3.402 3.459 0 .214.022.425.064.629-1.543.807-2.58 2.31-2.58 4.03 0 2.572 2.32 4.658 5.184 4.658.519 0 1.02-.069 1.493-.196z" fill="#38A684"/><path fill="#553B26" d="M612.817 78.48h11.115l2.542 49.672h-15.607"/><path d="M590.715 68.801a17.276 17.276 0 0 1-1.73-7.563c0-8.5 6.106-15.564 14.14-16.983a14.441 14.441 0 0 1-.13-1.94c0-7.848 6.317-14.21 14.108-14.21s14.108 6.362 14.108 14.21c0 1.301-.174 2.56-.498 3.757.165-.006.33-.01.498-.01 7.405 0 13.409 6.048 13.409 13.508 0 4.115-1.826 7.8-4.707 10.277a10.238 10.238 0 0 1 4.707 8.634c0 5.649-4.546 10.228-10.154 10.228-3.823 0-7.153-2.128-8.885-5.273a16.644 16.644 0 0 1-6.91 1.493c-2.043 0-4.001-.367-5.812-1.04-2.458 3.086-6.232 5.062-10.465 5.062-7.406 0-13.41-6.048-13.41-13.508 0-2.414.63-4.68 1.73-6.642z" fill="#38A684"/><path fill="#553B26" d="M450.717 76.48h11.115l2.542 49.672h-15.607"/><path d="M428.615 66.801a17.276 17.276 0 0 1-1.73-7.563c0-8.5 6.106-15.564 14.14-16.983a14.441 14.441 0 0 1-.13-1.94c0-7.848 6.317-14.21 14.108-14.21s14.108 6.362 14.108 14.21c0 1.301-.174 2.56-.498 3.757.165-.006.33-.01.498-.01 7.405 0 13.409 6.048 13.409 13.508 0 4.115-1.826 7.8-4.707 10.277a10.238 10.238 0 0 1 4.707 8.634c0 5.649-4.546 10.228-10.154 10.228-3.823 0-7.153-2.128-8.885-5.273a16.644 16.644 0 0 1-6.91 1.493c-2.043 0-4.001-.367-5.812-1.04-2.458 3.086-6.232 5.062-10.465 5.062-7.406 0-13.41-6.048-13.41-13.508 0-2.414.63-4.68 1.73-6.642z" fill="#38A684"/><path fill="#553B26" d="M903.75 78.48h13.298l3.042 49.672h-18.673"/><path d="M877.306 68.801c-1.326-2.283-2.07-4.85-2.07-7.563 0-8.5 7.306-15.564 16.919-16.983a12.112 12.112 0 0 1-.156-1.94c0-7.848 7.557-14.21 16.879-14.21 9.322 0 16.879 6.362 16.879 14.21 0 1.301-.208 2.56-.596 3.757.197-.006.396-.01.596-.01 8.86 0 16.043 6.048 16.043 13.508 0 4.115-2.185 7.8-5.632 10.277 3.386 1.816 5.632 5.004 5.632 8.634 0 5.649-5.44 10.228-12.149 10.228-4.574 0-8.557-2.128-10.63-5.273a23.266 23.266 0 0 1-8.267 1.493c-2.445 0-4.787-.367-6.954-1.04-2.94 3.086-7.456 5.062-12.52 5.062-8.861 0-16.044-6.048-16.044-13.508 0-2.414.752-4.68 2.07-6.642z" fill="#38A684"/><path fill="#553B26" d="M952.782 77.98h13.298l3.042 49.672H950.45"/><path d="M926.338 68.301c-1.326-2.283-2.07-4.85-2.07-7.563 0-8.5 7.306-15.564 16.919-16.983a12.112 12.112 0 0 1-.156-1.94c0-7.848 7.557-14.21 16.879-14.21 9.322 0 16.879 6.362 16.879 14.21 0 1.301-.208 2.56-.596 3.757.197-.006.396-.01.596-.01 8.86 0 16.043 6.048 16.043 13.508 0 4.115-2.185 7.8-5.632 10.277 3.386 1.816 5.632 5.004 5.632 8.634 0 5.649-5.44 10.228-12.149 10.228-4.574 0-8.557-2.128-10.63-5.273a23.266 23.266 0 0 1-8.267 1.493c-2.445 0-4.787-.367-6.954-1.04-2.94 3.086-7.456 5.062-12.52 5.062-8.861 0-16.044-6.048-16.044-13.508 0-2.414.752-4.68 2.07-6.642z" fill="#38A684"/><path fill="#553B26" d="M1090.697 83.835h11.115l2.542 44.207h-15.607"/><path d="M1068.595 75.22a13.997 13.997 0 0 1-1.73-6.731c0-7.566 6.106-13.852 14.14-15.115-.085-.565-.13-1.14-.13-1.726 0-6.985 6.317-12.648 14.108-12.648s14.108 5.663 14.108 12.648c0 1.157-.174 2.278-.498 3.343.165-.006.33-.009.498-.009 7.405 0 13.409 5.383 13.409 12.022 0 3.662-1.826 6.942-4.707 9.147 2.83 1.615 4.707 4.453 4.707 7.684 0 5.027-4.546 9.103-10.154 9.103-3.823 0-7.153-1.894-8.885-4.693a18.399 18.399 0 0 1-6.91 1.328c-2.043 0-4.001-.326-5.812-.925-2.458 2.746-6.232 4.505-10.465 4.505-7.406 0-13.41-5.383-13.41-12.022 0-2.149.63-4.166 1.73-5.911z" fill="#38A684"/><path fill="#553B26" d="M1160.432 68.451h17.653l4.039 59.605h-24.79"/><path d="M1125.327 56.836c-1.76-2.74-2.748-5.82-2.748-9.076 0-10.2 9.698-18.677 22.46-20.38a13.17 13.17 0 0 1-.207-2.327c0-9.418 10.032-17.053 22.407-17.053s22.407 7.635 22.407 17.053c0 1.56-.275 3.072-.791 4.507.262-.007.526-.01.791-.01 11.763 0 21.298 7.256 21.298 16.208 0 4.938-2.9 9.36-7.476 12.333 4.495 2.178 7.476 6.004 7.476 10.36 0 6.779-7.22 12.274-16.128 12.274-6.072 0-11.36-2.554-14.111-6.327-3.348 1.15-7.064 1.79-10.976 1.79-3.245 0-6.354-.44-9.23-1.247-3.904 3.703-9.9 6.074-16.622 6.074-11.763 0-21.298-7.257-21.298-16.21 0-2.896.998-5.616 2.748-7.97z" fill="#38A684"/><path fill="#553B26" d="M275.355 78.486h13.298l3.042 49.67h-18.673"/><path d="M248.911 68.806c-1.326-2.283-2.07-4.85-2.07-7.563 0-8.5 7.306-15.564 16.919-16.983a12.112 12.112 0 0 1-.156-1.94c0-7.848 7.557-14.21 16.879-14.21 9.322 0 16.879 6.362 16.879 14.21 0 1.301-.208 2.56-.596 3.757.197-.006.396-.01.596-.01 8.86 0 16.043 6.048 16.043 13.508 0 4.115-2.185 7.8-5.632 10.277 3.386 1.816 5.632 5.004 5.632 8.634 0 5.649-5.44 10.228-12.149 10.228-4.574 0-8.557-2.128-10.63-5.273a23.266 23.266 0 0 1-8.267 1.493c-2.445 0-4.787-.367-6.954-1.04-2.94 3.086-7.456 5.062-12.52 5.062-8.861 0-16.044-6.048-16.044-13.508 0-2.414.752-4.68 2.07-6.642z" fill="#38A684"/><path fill="#553B26" d="M237.328 63.25h16.602l3.798 64.801h-23.313"/><path d="M232.205 73.693c4.091 2.047 8.824 3.216 13.867 3.216 5.11 0 9.903-1.201 14.032-3.3 2.609 1.866 5.937 2.985 9.562 2.985 8.376 0 15.167-5.974 15.167-13.344 0-1.646-.339-3.223-.959-4.679 6.153-3.007 10.316-8.783 10.316-15.414 0-9.733-8.968-17.622-20.03-17.622a22.7 22.7 0 0 0-4.724.492c.036-.502.054-1.008.054-1.518 0-13.29-12.245-24.062-27.35-24.062-15.106 0-27.351 10.773-27.351 24.062 0 1.009.07 2.003.207 2.98a13.513 13.513 0 0 0-.207-.002c-6.438 0-11.657 4.591-11.657 10.255 0 3.264 1.734 6.173 4.436 8.05-5.53 3.172-9.193 8.699-9.193 14.987 0 9.84 8.968 17.817 20.03 17.817 5.349 0 10.208-1.865 13.8-4.903z" fill="#38A684"/><path fill="#553B26" d="M64.459 83.127h11.587l2.65 45.057h-16.27"/><path d="M60.884 90.387c2.855 1.424 6.158 2.237 9.677 2.237 3.568 0 6.912-.835 9.794-2.295 1.82 1.298 4.143 2.076 6.673 2.076 5.846 0 10.585-4.154 10.585-9.278a8.25 8.25 0 0 0-.669-3.254c4.294-2.091 7.2-6.107 7.2-10.718 0-6.767-6.26-12.252-13.98-12.252a15.9 15.9 0 0 0-3.296.342c.025-.349.037-.701.037-1.056 0-9.24-8.546-16.73-19.088-16.73-10.542 0-19.089 7.49-19.089 16.73 0 .702.05 1.393.145 2.072l-.145-.001c-4.492 0-8.135 3.192-8.135 7.13 0 2.27 1.21 4.292 3.096 5.598-3.86 2.205-6.416 6.048-6.416 10.42 0 6.842 6.259 12.389 13.98 12.389 3.732 0 7.123-1.297 9.63-3.41z" fill="#38A684"/><path fill="#69D2E7" d="M970.5 94.747h96.06v33.623H970.5z"/><path fill="#828282" style="mix-blend-mode:color-burn" d="M970.5 122.104h96.06v6.317H970.5z"/><path fill="#FA6900" d="M989.9 66.423h59.759l16.901 28.324H970.5"/><path d="M1002.022 93.386h-.12v34.935h33.337V93.386h-.12l-16.548-21.427-16.549 21.427z" fill="#A7DBD8"/><path d="M1013.087 99.464h8.568v-5.79c0-2.572-1.918-4.656-4.284-4.656-2.366 0-4.284 2.084-4.284 4.656v5.79z" fill="#ABD3FA" stroke="#979797"/><path fill="#828282" style="mix-blend-mode:color-burn" d="M1001.95 94.906l16.822-26.184 5.074 8.176-21.897 31.125"/><path d="M1018.53 62.55l21.823 32.343h-43.646l21.823-32.343zm0 12.332l13.283 20.011h-26.567l13.284-20.01z" fill="#F38630"/><use stroke="#745A5A" mask="url(#y)" stroke-width="2.4" fill="#764030" xlink:href="#a" transform="translate(1013.037 111.14)"/><path fill="#E0E4CC" d="M979.975 107.738h10.685v11.819h-10.685z"/><g transform="translate(980.58 107.84)"><use fill-opacity=".5" fill="#D2FFFA" xlink:href="#b"/><use stroke="#924715" mask="url(#z)" stroke-width="2" xlink:href="#b"/></g><path fill="#E0E4CC" d="M1044.284 107.534h10.684v11.819h-10.684z"/><g transform="translate(1044.262 107.534)"><use fill-opacity=".5" fill="#D2FFFA" xlink:href="#c"/><use stroke="#924715" mask="url(#A)" stroke-width="2" xlink:href="#c"/></g><g><path fill="#69D2E7" d="M299.377 100.448h52.777v27.302h-52.777z"/><path fill="#828282" style="mix-blend-mode:color-burn" d="M299.377 121.602h69.993v6.148h-69.993z"/><path fill="#FA6900" d="M319.664 63.89h32.92v36.558h-57.991"/><path d="M336.146 93.916h-.12v33.863h33.344V93.916h-.12l-16.552-20.769-16.552 20.77z" fill="#A7DBD8"/><ellipse fill="#D8D8D8" cx="4.486" cy="4.412" rx="4.486" ry="4.412" transform="translate(348.07 86.256)" stroke="#979797"/><path fill="#828282" style="mix-blend-mode:color-burn" d="M336.073 95.377L352.9 70.011l5.074 7.92-21.901 30.154"/><path fill="#E0E4CC" d="M312.785 107.772h10.687v11.501h-10.687z"/><g transform="translate(312.763 107.772)"><use fill-opacity=".5" fill="#D2FFFA" xlink:href="#d"/><use stroke="#924715" mask="url(#B)" stroke-width="2" xlink:href="#d"/></g><path d="M352.657 63.8l21.828 32.57H330.83l21.827-32.57zm0 12.419l13.287 20.15H339.37l13.286-20.15z" fill="#F38630"/><g transform="translate(347.87 110.647)" stroke="#745A5A" stroke-width="2.4" fill="#764030"><use mask="url(#C)" xlink:href="#e"/></g></g><g><path fill="#69D2E7" d="M198.511 106.545h44.2V128.3h-44.2z"/><path fill="#828282" style="mix-blend-mode:color-burn" d="M198.511 123.402h58.62v4.898h-58.62z"/><path fill="#FA6900" d="M215.502 77.412h27.57v29.133h-48.567"/><path d="M229.305 101.34h-.1v26.983h27.925V101.34h-.1l-13.863-16.55-13.862 16.55z" fill="#A7DBD8"/><ellipse fill="#D8D8D8" cx="3.757" cy="3.516" rx="3.757" ry="3.516" transform="translate(239.292 95.235)" stroke="#979797"/><path fill="#828282" style="mix-blend-mode:color-burn" d="M229.244 102.504l14.092-20.214 4.25 6.312-18.342 24.028"/><path fill="#E0E4CC" d="M209.738 112.38h8.95v9.165h-8.95z"/><g transform="translate(209.72 112.38)"><use fill-opacity=".5" fill="#D2FFFA" xlink:href="#f"/><use stroke="#924715" mask="url(#D)" stroke-width="2" xlink:href="#f"/></g><path d="M243.134 77.34l18.28 25.954h-36.56l18.28-25.954zm0 9.896l11.128 16.058h-22.255l11.127-16.058z" fill="#F38630"/><g transform="translate(239.124 114.67)" stroke="#745A5A" stroke-width="2.4" fill="#764030"><use mask="url(#E)" xlink:href="#g"/></g></g><g><path fill="#69D2E7" d="M612.697 100.948H559.92v27.302h52.777z"/><path fill="#828282" style="mix-blend-mode:color-burn" d="M612.697 122.102h-69.993v6.148h69.993z"/><path fill="#FA6900" d="M592.41 64.39h-32.92v36.558h57.991"/><path d="M575.928 94.416h.12v33.863h-33.344V94.416h.12l16.552-20.769 16.552 20.77z" fill="#A7DBD8"/><ellipse fill="#D8D8D8" cx="4.486" cy="4.412" rx="4.486" ry="4.412" transform="matrix(-1 0 0 1 563.398 86.756)" stroke="#979797"/><path fill="#828282" style="mix-blend-mode:color-burn" d="M542.603 96.076l16.826-25.366 5.075 7.92-21.901 30.153"/><path fill="#E0E4CC" d="M599.29 108.272h-10.687v11.501h10.687z"/><g transform="matrix(-1 0 0 1 599.312 108.272)"><use fill-opacity=".5" fill="#D2FFFA" xlink:href="#h"/><use stroke="#924715" mask="url(#F)" stroke-width="2" xlink:href="#h"/></g><path d="M559.416 64.3l-21.828 32.57h43.655L559.416 64.3zm0 12.419l-13.287 20.15h26.573l-13.286-20.15z" fill="#F38630"/><g transform="matrix(-1 0 0 1 564.205 111.147)" stroke="#745A5A" stroke-width="2.4" fill="#764030"><use mask="url(#G)" xlink:href="#i"/></g></g><g><path fill="#69D2E7" d="M75.358 106.545H22.58V128.3h52.777z"/><path fill="#828282" style="mix-blend-mode:color-burn" d="M75.358 123.402H5.365v4.898h69.993z"/><path fill="#FA6900" d="M55.07 77.412H22.15v29.133h57.992"/><path d="M38.59 101.34h.12v26.983H5.364V101.34h.12l16.552-16.55 16.552 16.55z" fill="#A7DBD8"/><ellipse fill="#D8D8D8" cx="4.486" cy="3.516" rx="4.486" ry="3.516" transform="matrix(-1 0 0 1 26.06 95.235)" stroke="#979797"/><path fill="#828282" style="mix-blend-mode:color-burn" d="M5.265 102.662L22.09 82.448l5.075 6.312-21.901 24.028"/><path fill="#E0E4CC" d="M61.951 112.38H51.264v9.165h10.687z"/><g transform="matrix(-1 0 0 1 61.973 112.38)"><use fill-opacity=".5" fill="#D2FFFA" xlink:href="#j"/><use stroke="#924715" mask="url(#H)" stroke-width="2" xlink:href="#j"/></g><path d="M22.078 77.34L.25 103.294h43.655L22.078 77.34zm0 9.896L8.79 103.294h26.573L22.078 87.236z" fill="#F38630"/><g transform="matrix(-1 0 0 1 26.866 114.67)" stroke="#745A5A" stroke-width="2.4" fill="#764030"><use mask="url(#I)" xlink:href="#k"/></g></g><g><path fill="#69D2E7" d="M168.417 100.697H115.64V128h52.777z"/><path fill="#828282" style="mix-blend-mode:color-burn" d="M168.417 121.851H98.424V128h69.993z"/><path fill="#FA6900" d="M148.13 64.14h-32.92v36.557H173.2"/><path d="M131.648 94.165h.12v33.863H98.424V94.165h.12l16.552-20.769 16.552 20.77z" fill="#A7DBD8"/><ellipse fill="#D8D8D8" cx="4.486" cy="4.412" rx="4.486" ry="4.412" transform="matrix(-1 0 0 1 119.118 86.505)" stroke="#979797"/><path fill="#828282" style="mix-blend-mode:color-burn" d="M98.323 95.825l16.826-25.366 5.075 7.92-21.901 30.153"/><path fill="#E0E4CC" d="M155.01 108.02h-10.687v11.501h10.687z"/><g transform="matrix(-1 0 0 1 155.032 108.02)"><use fill-opacity=".5" fill="#D2FFFA" xlink:href="#l"/><use stroke="#924715" mask="url(#J)" stroke-width="2" xlink:href="#l"/></g><path d="M115.136 64.048l-21.828 32.57h43.655l-21.827-32.57zm0 12.419l-13.287 20.15h26.573l-13.286-20.15z" fill="#F38630"/><g transform="matrix(-1 0 0 1 119.925 110.896)" stroke="#745A5A" stroke-width="2.4" fill="#764030"><use mask="url(#K)" xlink:href="#m"/></g></g><g><path fill="#69D2E7" d="M719.763 100.448h-52.777v27.302h52.777z"/><path fill="#828282" style="mix-blend-mode:color-burn" d="M719.763 121.602H649.77v6.148h69.993z"/><path fill="#FA6900" d="M699.476 63.89h-32.92v36.558h57.991"/><path d="M682.994 93.916h.12v33.863H649.77V93.916h.12l16.552-20.769 16.552 20.77z" fill="#A7DBD8"/><ellipse fill="#D8D8D8" cx="4.486" cy="4.412" rx="4.486" ry="4.412" transform="matrix(-1 0 0 1 670.466 86.256)" stroke="#979797"/><path fill="#828282" style="mix-blend-mode:color-burn" d="M649.67 95.576l16.826-25.366 5.075 7.92-21.901 30.153"/><path fill="#E0E4CC" d="M706.358 107.772h-10.687v11.501h10.687z"/><g transform="matrix(-1 0 0 1 706.38 107.772)"><use fill-opacity=".5" fill="#D2FFFA" xlink:href="#n"/><use stroke="#924715" mask="url(#L)" stroke-width="2" xlink:href="#n"/></g><path d="M666.483 63.8l-21.828 32.57h43.655L666.483 63.8zm0 12.419l-13.287 20.15h26.573l-13.286-20.15z" fill="#F38630"/><g transform="matrix(-1 0 0 1 671.272 110.647)" stroke="#745A5A" stroke-width="2.4" fill="#764030"><use mask="url(#M)" xlink:href="#o"/></g></g><g><path d="M766.473 100.81h64.774v27.36h-64.774z" fill="#A7DBD8"/><use stroke="#745A5A" mask="url(#N)" stroke-width="2.4" fill="#764030" xlink:href="#p" transform="translate(794.938 110.407)"/><path fill="#828282" style="mix-blend-mode:color-burn" d="M766.222 105.976h64.964v9.188h-64.964z"/><path fill="#FA6900" d="M767.664 80.709h62.82l8.092 25.267h-79.744"/><path fill="#E0E4CC" d="M777.417 110.752h7.732v9.032h-7.732z"/><g transform="translate(777.272 110.674)"><use fill-opacity=".5" fill="#D2FFFA" xlink:href="#q"/><use stroke="#924715" mask="url(#O)" stroke-width="2" xlink:href="#q"/></g><path fill="#E0E4CC" d="M814.586 110.674h7.655v8.942h-7.655z"/><g transform="translate(814.57 110.674)"><use fill-opacity=".5" fill="#D2FFFA" xlink:href="#r"/><use stroke="#924715" mask="url(#P)" stroke-width="2" xlink:href="#r"/></g></g><g><path d="M1115.484 100.81h67.203v27.36h-67.203z" fill="#A7DBD8"/><use stroke="#745A5A" mask="url(#Q)" stroke-width="2.4" fill="#764030" xlink:href="#s" transform="translate(1145.016 110.407)"/><path fill="#828282" style="mix-blend-mode:color-burn" d="M1114.884 105.976h67.4v9.188h-67.4z"/><path fill="#FA6900" d="M1116.719 80.412h65.176l8.395 25.268h-82.734"/><path fill="#E0E4CC" d="M1126.838 110.752h8.021v9.032h-8.021z"/><g transform="translate(1126.687 110.674)"><use fill-opacity=".5" fill="#D2FFFA" xlink:href="#t"/><use stroke="#924715" mask="url(#R)" stroke-width="2" xlink:href="#t"/></g><path fill="#E0E4CC" d="M1165.4 110.674h7.941v8.942h-7.942z"/><g transform="translate(1165.383 110.674)"><use fill-opacity=".5" fill="#D2FFFA" xlink:href="#u"/><use stroke="#924715" mask="url(#S)" stroke-width="2" xlink:href="#u"/></g></g><g><path fill="#69D2E7" d="M389 91.585h104.93v36.284H389z"/><path fill="#828282" style="mix-blend-mode:color-burn" d="M389 121.107h104.93v6.817H389z"/><path fill="#FA6900" d="M410.191 61.02h65.277l18.462 30.565H389"/><path d="M423.432 90.826h-.13v37.12h36.415v-37.12h-.131L441.509 68.06l-18.077 22.766z" fill="#A7DBD8"/><path d="M435.52 97.284h9.358v-6.152c0-2.732-2.095-4.947-4.68-4.947-2.584 0-4.679 2.215-4.679 4.947v6.152z" fill="#ABD3FA" stroke="#979797" stroke-width=".75"/><path fill="#828282" style="mix-blend-mode:color-burn" d="M423.353 92.44l18.376-27.82 5.542 8.687-23.918 33.07"/><path d="M441.465 58.055l23.837 34.41h-47.675l23.838-34.41zm0 13.12l14.51 21.29h-29.02l14.51-21.29z" fill="#F38630"/><use stroke="#745A5A" mask="url(#T)" stroke-width="1.8" fill="#764030" xlink:href="#v" transform="translate(435.464 109.765)"/><path fill="#E0E4CC" d="M469.597 105.384h11.671v12.754h-11.671z"/><g transform="translate(469.573 105.384)"><use fill-opacity=".5" fill="#D2FFFA" xlink:href="#w"/><use stroke="#924715" mask="url(#U)" stroke-width="1.5" xlink:href="#w"/></g><g><path fill="#E0E4CC" d="M399.024 105h11.671v12.754h-11.671z"/><g transform="translate(399 105)"><use fill-opacity=".5" fill="#D2FFFA" xlink:href="#x"/><use stroke="#924715" mask="url(#V)" stroke-width="1.5" xlink:href="#x"/></g></g></g></g></svg>